<svg xmlns="http://www.w3.org/2000/svg" xmlns:xlink="http://www.w3.org/1999/xlink" width="2742.13" height="886.453" viewBox="0 0 2742.13 886.453">
  <defs>
    <linearGradient id="linear-gradient" x1="0.5" y1="1" x2="0.5" gradientUnits="objectBoundingBox">
      <stop offset="0" stop-color="#696969"/>
      <stop offset="1" stop-color="#c4c3c3"/>
    </linearGradient>
    <linearGradient id="linear-gradient-2" x1="0.5" y1="1" x2="0.5" y2="0" xlink:href="#linear-gradient"/>
    <linearGradient id="linear-gradient-4" x1="0.5" x2="0.5" y2="1" gradientUnits="objectBoundingBox">
      <stop offset="0" stop-color="#e3e2e2"/>
      <stop offset="1" stop-color="#969696"/>
    </linearGradient>
  </defs>
  <g id="Group_12356" data-name="Group 12356" transform="translate(-117.605 -398.256)" style="mix-blend-mode: soft-light;isolation: isolate">
    <g id="Group_12354" data-name="Group 12354" transform="translate(243.386 398.256)">
      <path id="Path_5053" data-name="Path 5053" d="M261.088,966.931H455.6V565.687h5.527V554.218H449.064v-14.68h-95.7v-22.3H316.8l-5.462-14.565H302.3V476.647h-4.03V502.67H281.515v36.868H267.627v14.68H255.562v11.469h5.527Z" transform="translate(10.758 -253.842)" fill="url(#linear-gradient)"/>
      <path id="Path_5054" data-name="Path 5054" d="M277.264,477.721a3.62,3.62,0,1,0-3.621,3.618A3.619,3.619,0,0,0,277.264,477.721Z" transform="translate(37.403 -258.535)" fill="url(#linear-gradient-2)"/>
      <path id="Path_5055" data-name="Path 5055" d="M2238.979,1134.835V595.4l-239.49-49.711,26.241,589.146h-702.75V801.551h-12.936V602.112h-33.393V548.69h-11.93V470.339h-65.727V412.755h-5.848v57.584h-12.875V398.256h-5.849v72.084h-41.551V602.112h-21.463V801.551h-18.4v333.284H906.129V691.182h3.228v-5.128h-23V655.226h2.972V650.29H868.22V632.566h1.893v-3.788h-9.089V612.035H851V552.27h-3.34v59.765H843.6V578.718h-3.34v33.317H830.232v16.743h-10.49v3.788h3.293V650.29H801.926v4.936H804.9v30.828h-23v5.128h3.228v443.653H161.86v60.507H2705.866v-60.507Z" transform="translate(-161.86 -398.256)" fill="url(#linear-gradient)"/>
    </g>
    <path id="Path_5056" data-name="Path 5056" d="M2719.283,1098.536v-54.465h-76.566l-28.976-214.4h-4.349V803.916h-15.223v25.756H2590.4v-9.632h-10.655v9.632H2557.67V807.218h-6.088v-15.6H2508.2v15.6H2502.1v22.453h-6.088V958.441h-38.563V631.718h-12.687V560.066h-4.059v71.652h-9.641v-99.4h-4.059v99.4h-8.373v-53.8h-4.059v53.8h-74.846v231.91h-83.217v150.242H2178.8l-61.713-113.751a160.019,160.019,0,0,0,29.164-21.547l12.654,13.5a12.994,12.994,0,1,0,1.14-.887l-12.744-13.6q1.616-1.535,3.2-3.112A159.717,159.717,0,0,0,2182.32,829.2l14.094,6.506a12.939,12.939,0,1,0,.432-1.384l-13.921-6.429a158.8,158.8,0,0,0,14.211-60.368l15.172.492a12.938,12.938,0,1,0,.04-1.438l-15.169-.492q.059-2.229.062-4.465a159.681,159.681,0,0,0-9.5-54.5l12.673-4.664a12.963,12.963,0,1,0-.5-1.35l-12.67,4.664a158.869,158.869,0,0,0-32.646-52.757l9.916-9.291a12.9,12.9,0,1,0-.986-1.049l-9.917,9.291q-1.535-1.62-3.115-3.2a159.369,159.369,0,0,0-51.526-34.587l5.454-13.281a12.994,12.994,0,1,0-1.344-.514l-5.44,13.25a159.155,159.155,0,0,0-54.09-11.508l.588-18.153c.139.006.273.011.412.011a12.96,12.96,0,1,0-1.847-.133l-.591,18.233q-2.23-.064-4.468-.063a159.809,159.809,0,0,0-52.4,8.76l-5.221-14.817a13,13,0,1,0-1.361.472l5.224,14.822a158.731,158.731,0,0,0-54.843,33.407l-9.465-10.1a13.04,13.04,0,1,0-1.035,1l9.45,10.084q-1.62,1.535-3.2,3.115a159.665,159.665,0,0,0-31.821,45.274l-12.028-5.554a12.953,12.953,0,1,0-.534,1.339l11.957,5.52a158.817,158.817,0,0,0-14.211,60.369l-15.439-.5a12.948,12.948,0,1,0-.04,1.438l15.436.5q-.064,2.225-.062,4.465a159.675,159.675,0,0,0,9.5,54.494l-12.676,4.667a12.789,12.789,0,1,0,.5,1.35l12.671-4.664a158.829,158.829,0,0,0,32.645,52.754l-9.916,9.291a12.9,12.9,0,1,0,.986,1.049l9.917-9.291q1.531,1.62,3.112,3.2a160.454,160.454,0,0,0,33.416,25.645l-61.713,113.751h-49.98V936.755h-20.375V790.324h7.924v-3.183h-175.08v3.183h7.921V864.17h-17.161l-16.377,84.163V672.313h-7.185v-99.96h-36.17V534.3h-19.353V502.327h-6.79v-54.8h-1.756v54.8h-6.79V534.3h-19.353v38.057h-35.894v99.96h-7.461V853.8H1436.96v160.07H1252.316V704.362h14.842v-4.874h-14.842V690.77h-18.81V676.449H1079.672V690.77h-18.81v8.717h-14.842v4.874h14.842V897.035H1035.7V860.879H880.473v44.148H846.628v82.2h-54.8V718.547H773.561v-18.27H759.1V651.949h-3.044v48.329H749.2V639.77h-3.044v60.508h-8.421v18.27h-4.519V987.229H619.809V829.672h5.329V819.016H590.125V790.094H573.379v28.922H558.156V790.094H542.933v28.922h-29.61V790.094H422.674v28.922H401.508v10.655h12.031v59.371h-33.49V1023H334.08V987.229H282.9v78.016h-61.88v33.291H129.745v95.407H2800.837v-95.407ZM2115.022,896.321l-21.373-39.4a111.146,111.146,0,0,0,19.034-14.171l30.61,32.668A155.712,155.712,0,0,1,2115.022,896.321Zm-80.011-126.4a8.913,8.913,0,0,0,1.631.347l-3.24,99.673a107.7,107.7,0,0,1-36.275-7.771ZM1995.8,861.63a107.912,107.912,0,0,1-10.63-5.173l47.556-87.653a8.808,8.808,0,0,0,.958.571Zm42.283-91.312a8.682,8.682,0,0,0,1.771-.273L2073,864.108a107.92,107.92,0,0,1-35.36,5.926q-1.4,0-2.8-.037Zm3.127-.753a8.577,8.577,0,0,0,1.358-.762l47.556,87.653a108.073,108.073,0,0,1-15.76,7.171Zm8,5.449,62,66.166a109.161,109.161,0,0,1-18.588,13.845Zm-2.712-5-1.79-3.3a8.8,8.8,0,0,0,.514-.8l90.538,41.794a108.961,108.961,0,0,1-23.5,32.5Zm-.671-5.412a8.562,8.562,0,0,0,.466-1.984l99.676,3.24a107.711,107.711,0,0,1-9.6,40.541Zm.514-3.422a8.59,8.59,0,0,0-.3-1.887l93.594-34.459a107.957,107.957,0,0,1,6.426,36.784q0,1.4-.034,2.8Zm-.8-3.237a8.743,8.743,0,0,0-1.072-1.734l72.735-68.156a108.613,108.613,0,0,1,21.927,35.431Zm-2.055-2.786a8.81,8.81,0,0,0-1.878-1.3l37.886-92.252A108.8,108.8,0,0,1,2116.221,687Zm-3.209-1.845a8.821,8.821,0,0,0-1.628-.347l3.24-99.673a107.7,107.7,0,0,1,36.272,7.771Zm-3.07-.392a8.618,8.618,0,0,0-1.768.27l-33.151-94.063a107.987,107.987,0,0,1,35.357-5.923q1.407,0,2.805.034Zm-3.124.75a8.693,8.693,0,0,0-1.844,1.122l-68.156-72.735a108.607,108.607,0,0,1,36.846-22.451Zm-2.9,2.1a8.7,8.7,0,0,0-1.117,1.552l-90.541-41.795a108.966,108.966,0,0,1,23.5-32.492Zm-1.725,2.856a8.7,8.7,0,0,0-.466,1.984l-99.673-3.24a107.628,107.628,0,0,1,9.6-40.538Zm-.515,3.425a8.787,8.787,0,0,0,.307,1.884L1935.659,798.4a107.879,107.879,0,0,1-6.429-36.781q0-1.407.034-2.805Zm.8,3.234a8.833,8.833,0,0,0,.835,1.421l-.594,1.091-71.9,67.377a108.623,108.623,0,0,1-21.925-35.431Zm-1.933,6.523-45.146,83.208a109.226,109.226,0,0,1-23.6-18.787Zm-43.676,86.539a110.613,110.613,0,0,0,10.838,5.269l-17.016,41.436a153.494,153.494,0,0,1-15.189-7.322Zm12.171,5.815a109.9,109.9,0,0,0,37.023,7.93l-1.452,44.7a154.763,154.763,0,0,1-52.589-11.19Zm38.463,7.984q1.429.038,2.871.04a110.078,110.078,0,0,0,36.079-6.051l14.885,42.241a155.463,155.463,0,0,1-50.964,8.518q-2.166,0-4.326-.063Zm40.306-6.492a109.988,109.988,0,0,0,16.073-7.307l21.368,39.384a153.622,153.622,0,0,1-22.553,10.166Zm72.365,5.755q-1.531,1.535-3.1,3.018l-30.608-32.665a111.093,111.093,0,0,0,23.985-33.16l40.677,18.778A155.38,155.38,0,0,1,2147.443,871.418ZM2179,826.085l-40.672-18.778a109.74,109.74,0,0,0,9.8-41.377l44.694,1.455A154.494,154.494,0,0,1,2179,826.085Zm13.924-64.464c0,1.444-.023,2.885-.06,4.326l-44.685-1.452q.038-1.437.037-2.873a110.031,110.031,0,0,0-6.562-37.528l42.031-15.476A155.357,155.357,0,0,1,2192.924,761.621Zm-41.479-105.65a154.477,154.477,0,0,1,31.744,51.3l-42.036,15.476a110.779,110.779,0,0,0-22.377-36.161Zm-4-4.15q1.535,1.53,3.015,3.1l-32.663,30.6a111.044,111.044,0,0,0-37.483-25.912l17.016-41.436A155.031,155.031,0,0,1,2147.443,651.821ZM2043.41,606.442A154.8,154.8,0,0,1,2096,617.632l-17.016,41.436a109.9,109.9,0,0,0-37.025-7.93Zm-5.767-.1q2.17,0,4.326.06l-1.452,44.685q-1.433-.038-2.874-.037a110.063,110.063,0,0,0-36.076,6.048l-14.887-42.238A155.474,155.474,0,0,1,2037.643,606.34Zm-52.322,8.993,14.888,42.244a110.71,110.71,0,0,0-37.6,22.911l-30.613-32.668A154.459,154.459,0,0,1,1985.321,615.333Zm-57.478,36.488q1.535-1.535,3.1-3.016l30.6,32.663a111.105,111.105,0,0,0-23.982,33.163l-40.678-18.779A155.323,155.323,0,0,1,1927.843,651.821Zm-31.557,45.336,40.672,18.776a109.8,109.8,0,0,0-9.794,41.377l-44.7-1.453A154.473,154.473,0,0,1,1896.286,697.157Zm-13.924,64.464q0-2.17.063-4.326l44.682,1.452c-.023.955-.037,1.913-.037,2.873a110.061,110.061,0,0,0,6.563,37.529L1891.6,814.622A155.362,155.362,0,0,1,1882.362,761.621Zm41.479,105.648a154.486,154.486,0,0,1-31.742-51.3l42.033-15.476a110.8,110.8,0,0,0,22.377,36.161Zm4,4.15q-1.531-1.53-3.016-3.1l32.663-30.6a111.38,111.38,0,0,0,24.15,19.21l-21.373,39.4A156.187,156.187,0,0,1,1927.843,871.418Zm32.867,30.116a157.247,157.247,0,0,0,15.609,7.523l-5.457,13.281a12.984,12.984,0,1,0,1.347.515l5.44-13.25a159.083,159.083,0,0,0,54.09,11.508l-.44,13.583a12.94,12.94,0,1,0,1.438.046l.44-13.586q2.23.064,4.465.063a159.826,159.826,0,0,0,52.4-8.76l4.653,13.2a13,13,0,1,0,1.339-.537l-4.633-13.142a157.816,157.816,0,0,0,23.172-10.448l60.945,112.335H1899.767Z" transform="translate(22.364 90.766)" fill="url(#linear-gradient-4)"/>
    <g id="Group_12355" data-name="Group 12355" transform="translate(117.605 787.184)">
      <path id="Path_5057" data-name="Path 5057" d="M937.881,538.717a3.086,3.086,0,1,0-3.038,3.621A3.368,3.368,0,0,0,937.881,538.717Z" transform="translate(1382.312 -535.096)" fill="#e1e2e3"/>
      <path id="Path_5058" data-name="Path 5058" d="M2768.988,973.982l-18.856-126.13h-38.565V743.192h4.769v-9.47h-18.723V692.955h-2.283v40.768H2682.39v-33.4h-2.284v33.4h-78v9.47h5.328V955.551h-89.054V860.429h-50.717V626.683h4.639V615.214h-10.128V600.534h-11.658V563.666h-14.067V537.644h-3.383v26.022h-7.582l-4.585,14.565h-30.69v22.3h-80.332v14.679H2299.75v11.469h4.64V778.766h-67.214V928.2l-74.583-33.045V750.111h12.034V739.455h-21.168V710.532h-90.647v28.923H2033.2V710.532h-15.223v28.923h-15.223V710.532h-16.745v28.923H1951v10.656h5.328V951.144h-34v-2.109h-6.154V891.746h6.154v-4.594h-6.154V829.863h6.154v-4.594h-6.154V767.98h6.154v-4.594h-6.154V706.1h6.154v-4.6h-6.154V644.214h6.154v-4.6h-6.154V580.332h10.543v-4.61h5.365V563.153H1831.947V549.174h3.257v-4.037H1780.69v4.037h3.256v13.979h-24.815v12.569h5.364v4.61h10.544v59.287h-6.155v4.6h6.155V701.5h-6.155v4.6h6.155v57.289h-6.155v4.594h6.155v57.289h-6.155v4.594h6.155v57.289h-6.155v4.594h6.155v57.289h-6.155v4.594h6.155v46.814h-34.176v-180.9H1603.348v131.6h-22.326V541.189H1564.5v10.552l-30.481,7.457v-6.854H1517.5v10.894l-30.481,7.455v-7.859H1470.5v11.9l-30.481,7.455v-6.484H1423.5v10.526l-30.481,7.455V588.1h-16.518V990.683h-23.239V776.054h-86.073V908.036h-88.241V795.487h-10.87v-36.96h6.453v-3.714h-28.557V743.192h-3.045v11.621H1133.8V695.156h-2.283v59.657h-11.9v3.714h7v36.96h-58.236v85.856h-56.7l-29.612,109.34h-59.41V633.689H844.006V620.9h4.47v-4.489H788.9V620.9h4.685V898.752H756.491V806.374h13.185V798.01H676.349V742.2h-17.8V730.734H618.805V742.2H586.469V941.473H480.389V793.681H391.064V910.414H313.548V985.1H257.654V891.209h-73.5v80.052H117.605v56.666h2742.13V973.982Z" transform="translate(-117.605 -530.403)" fill="#e1e2e3"/>
    </g>
  </g>
</svg>
