<svg id="business" data-name="business" xmlns="http://www.w3.org/2000/svg" viewBox="0 0 75 75"><title>Business</title><path d="M64,65H61.47V28.3a3.1,3.1,0,0,0-3.1-3.1H52.73a3.1,3.1,0,0,0-3.1,3.1V65H43.22V44.92a3.1,3.1,0,0,0-3.1-3.1H34.47a3.1,3.1,0,0,0-3.1,3.1V65H25V54.59a3.1,3.1,0,0,0-3.1-3.1H16.22a3.1,3.1,0,0,0-3.1,3.1V65H10.46a1.15,1.15,0,1,0,0,2.3H64A1.15,1.15,0,1,0,64,65ZM22.66,65H15.42V54.59a.79.79,0,0,1,.79-.79h5.65a.79.79,0,0,1,.79.79V65Zm18.25,0H33.68V44.92a.79.79,0,0,1,.79-.79h5.65a.79.79,0,0,1,.79.79Zm18.25,0H51.93V28.3a.79.79,0,0,1,.79-.79h5.65a.79.79,0,0,1,.79.79V65Z"/><path d="M61.47,9.52a1.15,1.15,0,0,0-1.21-1.21h-7a1.15,1.15,0,1,0,0,2.3h4.3L46.15,22,41.86,17.7a1.15,1.15,0,0,0-1.63,0L19.52,38.41A1.15,1.15,0,0,0,21.15,40L41,20.15l4.29,4.29a1.15,1.15,0,0,0,1.63,0l12.2-12.2v3.89a1.15,1.15,0,1,0,2.3,0V9.58S61.47,9.54,61.47,9.52Z"/><circle cx="16.45" cy="43.25" r="1.15"/></svg>