<svg id="days_out" data-name="days_out" xmlns="http://www.w3.org/2000/svg" viewBox="0 0 75 75"><title>Days Out & Attractions</title><path d="M40.66,37.41a4.52,4.52,0,0,0,.43-1.91,4.58,4.58,0,1,0-9.17,0,4.51,4.51,0,0,0,.43,1.91,6,6,0,0,0-5,5.91V52a.92.92,0,0,0,.92.92H31V64.83a.92.92,0,0,0,.92.92h9.17a.92.92,0,0,0,.92-.92h0V52.92h2.75a.92.92,0,0,0,.92-.92h0V43.32A6,6,0,0,0,40.66,37.41Zm3.18,13.67H42V41.92H40.17v22H37.42V51.08H35.58V63.92H32.83v-22H31v9.17H29.17V43.32a4.16,4.16,0,0,1,4.16-4.16h.78a.92.92,0,0,0,.6-1.61,2.71,2.71,0,0,1-1-2.06,2.75,2.75,0,0,1,5.5,0,2.71,2.71,0,0,1-1,2.06.92.92,0,0,0,.6,1.61h.78a4.16,4.16,0,0,1,4.16,4.16Z"/><path d="M62,33.15a3.07,3.07,0,0,0,0-1.83,3.16,3.16,0,0,0-2.24-2.13,3.3,3.3,0,0,0-2.85.58,3.07,3.07,0,0,0-1.2,2.43,3,3,0,0,0,.15.95,2.69,2.69,0,0,0-2,2.57V41a.92.92,0,0,0,.92.92h.92V46.5a.92.92,0,0,0,.92.92h4.58a.92.92,0,0,0,.92-.92h0V41.91h.92A.92.92,0,0,0,64,41h0V35.72A2.69,2.69,0,0,0,62,33.15Zm.15,6.93h-.92a.92.92,0,0,0-.92.92h0v4.59H57.58V41a.92.92,0,0,0-.92-.92h-.92V35.72a.88.88,0,0,1,.92-.84h.93a.92.92,0,0,0,.53-1.66,1.22,1.22,0,0,1-.05-2A1.48,1.48,0,0,1,59.35,31a1.31,1.31,0,0,1,.93.86,1.22,1.22,0,0,1-.49,1.38.92.92,0,0,0,.53,1.66h.93a.88.88,0,0,1,.92.84Z"/><path d="M17.1,33.15a3.07,3.07,0,0,0,0-1.83,3.16,3.16,0,0,0-2.24-2.13,3.3,3.3,0,0,0-2.85.58,3.07,3.07,0,0,0-1.2,2.43,3,3,0,0,0,.15.95,2.69,2.69,0,0,0-2,2.57V41a.92.92,0,0,0,.92.92h.92V46.5a.92.92,0,0,0,.92.92h4.58a.92.92,0,0,0,.92-.92h0V41.91h.92a.92.92,0,0,0,.92-.92h0V35.72A2.69,2.69,0,0,0,17.1,33.15Zm.15,6.93h-.92a.92.92,0,0,0-.92.92h0v4.59H12.67V41a.92.92,0,0,0-.92-.92h-.92V35.72a.88.88,0,0,1,.92-.84h.93a.92.92,0,0,0,.53-1.66,1.22,1.22,0,0,1-.05-2A1.48,1.48,0,0,1,14.44,31a1.31,1.31,0,0,1,.93.86,1.22,1.22,0,0,1-.49,1.38.92.92,0,0,0,.53,1.66h.93a.88.88,0,0,1,.92.84Z"/><path d="M22.64,11.89a3.45,3.45,0,0,0-2.55-1.14h0a3.45,3.45,0,0,0-2.55,1.14l-1.21,1.3-1.21-1.3a3.45,3.45,0,0,0-2.55-1.14h0A3.45,3.45,0,0,0,10,11.89a4,4,0,0,0,0,5.31l5.64,6.1a.92.92,0,0,0,1.3,0l0,0,5.64-6.1A4,4,0,0,0,22.64,11.89ZM21.3,15.95l-5,5.37-5-5.37a2.11,2.11,0,0,1,0-2.82A1.6,1.6,0,0,1,13.63,13l.15.15,1.88,2a1,1,0,0,0,1.34,0h0l1.88-2A1.6,1.6,0,0,1,21.15,13l.15.15h0A2.11,2.11,0,0,1,21.3,15.95Z"/><path d="M63,11.89a3.45,3.45,0,0,0-2.55-1.14h0a3.45,3.45,0,0,0-2.55,1.14l-1.21,1.3-1.21-1.3a3.45,3.45,0,0,0-2.55-1.14h0a3.45,3.45,0,0,0-2.55,1.14,4,4,0,0,0,0,5.31L56,23.29a.92.92,0,0,0,1.35,0L63,17.19A4,4,0,0,0,63,11.89Zm-1.35,4.06-5,5.37-5-5.37a2.11,2.11,0,0,1,0-2.82A1.6,1.6,0,0,1,54,13l.15.15,1.88,2a1,1,0,0,0,1.34,0h0l1.88-2A1.6,1.6,0,0,1,61.48,13l.15.15h0A2.11,2.11,0,0,1,61.63,15.95Z"/><path d="M60,49.43a.92.92,0,0,0-1.1,0L55.2,52.18l1.1,1.47L58.5,52v7.33h-11v1.83H59.42a.92.92,0,0,0,.92-.92h0V52l2.2,1.65,1.1-1.47Z"/><path d="M14.5,59.33V52l2.2,1.65,1.1-1.47-3.67-2.75a.92.92,0,0,0-1.1,0L9.37,52.18l1.1,1.47L12.67,52v8.25a.92.92,0,0,0,.92.92H25.5V59.33Z"/><rect x="27.33" y="59.33" width="1.83" height="1.83"/><rect x="43.83" y="59.33" width="1.83" height="1.83"/></svg>