<svg id="fashion" data-name="fashion" xmlns="http://www.w3.org/2000/svg" viewBox="0 0 75 75"><title>Fashion</title><path d="M31.3,51.85a4.4,4.4,0,1,0,4.4,4.4A4.4,4.4,0,0,0,31.3,51.85Zm0,6.34a1.94,1.94,0,1,1,1.94-1.94A1.95,1.95,0,0,1,31.3,58.19Z"/><path d="M46.73,51.85a4.4,4.4,0,1,0,4.4,4.4A4.4,4.4,0,0,0,46.73,51.85Zm0,6.34a1.94,1.94,0,1,1,1.94-1.94A1.95,1.95,0,0,1,46.73,58.19Z"/><path d="M47.81,28.68H30.21a1.23,1.23,0,1,0,0,2.46h17.6a1.23,1.23,0,1,0,0-2.46Z"/><path d="M46.85,35.06H31.17a1.23,1.23,0,0,0,0,2.46H46.85a1.23,1.23,0,0,0,0-2.46Z"/><path d="M59.79,23.21a2.45,2.45,0,0,0-1.9-.9H19.63l-.77-3.75a2.46,2.46,0,0,0-1.43-1.76L12,14.46a1.23,1.23,0,0,0-1,2.25L16.45,19,22.39,47.9a2.47,2.47,0,0,0,2.41,2H54.23a1.23,1.23,0,1,0,0-2.46H24.8l-.72-3.51H54.45a2.47,2.47,0,0,0,2.41-2L60.3,25.26A2.45,2.45,0,0,0,59.79,23.21ZM54.45,41.44H23.57L20.13,24.76H57.89Z"/></svg>