<svg id="finance_insurance" data-name="finance_insurance" xmlns="http://www.w3.org/2000/svg" viewBox="0 0 75 75"><title>Finance & Insurance</title><path d="M13.23,56.12a.64.64,0,0,0,.52-.17,1.21,1.21,0,0,0,.52-1.75,4.65,4.65,0,0,1-.52-2.1V39.88H30.69l8.55-8.55H13.93v-3a4.62,4.62,0,0,1,4.54-4.54H46.58A1.19,1.19,0,0,0,47.8,22.6a1.38,1.38,0,0,0-1.4-1.4H18.47a7.31,7.31,0,0,0-7.16,7.16V52.1a7.22,7.22,0,0,0,.87,3.32A1.44,1.44,0,0,0,13.23,56.12ZM61.94,14.39a1.37,1.37,0,0,0-1.92,0L12.71,61.71a1.37,1.37,0,0,0,0,1.92,1.27,1.27,0,0,0,1.75,0L61.94,16.31A1.37,1.37,0,0,0,61.94,14.39Zm-1.22,8.9a1.36,1.36,0,1,0-1.92,1.92,4.77,4.77,0,0,1,1.4,3.32v2.79H50.77l-8.55,8.55h18V52.1a4.62,4.62,0,0,1-4.54,4.54h-29a1.38,1.38,0,0,0-1.4,1.4,1.28,1.28,0,0,0,1.4,1.4H55.83A7.08,7.08,0,0,0,63,52.28V28.36A7.17,7.17,0,0,0,60.72,23.3Z"/></svg>