<svg id="finance" data-name="finance" xmlns="http://www.w3.org/2000/svg" viewBox="0 0 75 75"><title>Food</title><path d="M22.69,13a8,8,0,0,0-6.42-3.49A8,8,0,0,0,9.85,13a13.3,13.3,0,0,0-2.49,8,13.3,13.3,0,0,0,2.49,8,9,9,0,0,0,3.29,2.78L11.26,60.09a5,5,0,1,0,10,0L19.39,31.75A9,9,0,0,0,22.69,29a13.3,13.3,0,0,0,2.49-8A13.3,13.3,0,0,0,22.69,13ZM18.06,62.1a2.46,2.46,0,0,1-4.25-1.84l1.85-27.83.6,0,.6,0,1.85,27.83A2.43,2.43,0,0,1,18.06,62.1ZM16.27,29.9a4.62,4.62,0,0,1-1.34-.2l-.11,0c-2.8-.92-4.9-4.45-4.9-8.65,0-4.9,2.85-8.89,6.35-8.89s6.35,4,6.35,8.89S19.77,29.9,16.27,29.9Z"/><path d="M63.07,42.95V11h0a1.28,1.28,0,0,0-1.95-1.26,17.5,17.5,0,0,0-8.35,15h0V41.52a2.72,2.72,0,0,0,2.64,2.72V61.59a3.84,3.84,0,0,0,7.67,0V43Zm-7.59-1.28a.16.16,0,0,1-.16-.16V24.73h0a14.94,14.94,0,0,1,5.18-11.37V41.67Zm5,19.92a1.27,1.27,0,0,1-2.54,0V44.24h2.54V61.59Z"/><path d="M43.6,9.55a1.28,1.28,0,0,0-1.28,1.28V25.4H39.05V10.84a1.28,1.28,0,0,0-2.56,0V25.4H33.22V10.84a1.28,1.28,0,1,0-2.56,0V29.39a3.79,3.79,0,0,0,3.79,3.79h.23l-1.8,27a4.9,4.9,0,1,0,9.79,0l-1.8-27h.23a3.79,3.79,0,0,0,3.79-3.79V10.84A1.28,1.28,0,0,0,43.6,9.55ZM39.48,62.14a2.34,2.34,0,0,1-4-1.75l1.81-27.21h1L40.1,60.39A2.31,2.31,0,0,1,39.48,62.14Zm2.84-32.75a1.23,1.23,0,0,1-1.23,1.23H34.45a1.23,1.23,0,0,1-1.23-1.23V28h9.1Z"/></svg>