<svg id="gift" data-name="gift" xmlns="http://www.w3.org/2000/svg" viewBox="0 0 75 75"><title>Gift</title><path d="M62.42,25H51.16a13.83,13.83,0,0,0,2-1.59,7.45,7.45,0,0,0,0-10.47,7.53,7.53,0,0,0-10.44,0c-1.54,1.55-5.64,7.85-5.07,12.07h-.26c.56-4.21-3.53-10.52-5.07-12.07a7.53,7.53,0,0,0-10.44,0,7.45,7.45,0,0,0,0,10.47,14.09,14.09,0,0,0,2,1.59H12.58A3.57,3.57,0,0,0,9,28.56v8.9a1.78,1.78,0,0,0,1.78,1.78h1.78V60.61a3.57,3.57,0,0,0,3.56,3.56H58.86a3.57,3.57,0,0,0,3.56-3.56V39.25H64.2A1.78,1.78,0,0,0,66,37.47v-8.9A3.57,3.57,0,0,0,62.42,25Zm-38-9.56a3.79,3.79,0,0,1,5.39,0c2.4,2.41,4.78,8.58,4,9.44a1.17,1.17,0,0,1-.66.12c-2.46,0-7.16-2.56-8.69-4.1A3.88,3.88,0,0,1,24.38,15.45ZM35.72,60.61H16.14V39.25H35.72Zm0-24.92H12.58V28.56H35.72Zm9.51-20.24a3.84,3.84,0,0,1,5.39,5.45c-1.53,1.55-6.23,4.1-8.69,4.1a1.17,1.17,0,0,1-.66-.12C40.44,24,42.83,17.86,45.23,15.45ZM58.86,60.61H39.28V39.25H58.86Zm3.56-24.92H39.28V28.56H62.42Z"/></svg>