<svg id="health" data-name="health" xmlns="http://www.w3.org/2000/svg" viewBox="0 0 75 75"><title>Health</title><path d="M55,39a8,8,0,0,0-7.93,7H36V39.88A4,4,0,0,0,38.51,38L51.43,16.15A4.07,4.07,0,0,0,47.92,10H45.65A3.5,3.5,0,0,0,42.5,8C40.9,8,37,9.23,37,11.5S40.9,15,42.5,15a3.49,3.49,0,0,0,3.45-3h2a2.08,2.08,0,0,1,1.78,3.13L36.78,37a2.08,2.08,0,0,1-3.57,0L19.93,15.13A2.07,2.07,0,0,1,21.71,12h2.34a3.5,3.5,0,0,0,3.45,3c1.6,0,5.5-1.23,5.5-3.5S29.1,8,27.5,8a3.5,3.5,0,0,0-3.15,2H21.71a4.07,4.07,0,0,0-3.5,6.16L31.49,38A4,4,0,0,0,34,39.87V46H25A11,11,0,1,0,36,57V48H47.07A8,8,0,1,0,55,39ZM42.5,13c-1.23,0-3.36-1-3.5-1.5.14-.51,2.26-1.5,3.5-1.5a1.5,1.5,0,0,1,0,3Zm-15-3c1.23,0,3.36,1,3.5,1.5-.14.51-2.26,1.5-3.5,1.5a1.5,1.5,0,0,1,0-3ZM34,57a9,9,0,1,1-9-9h9Zm21-4a6,6,0,1,1,6-6A6,6,0,0,1,55,53Z"/><path d="M55,43a4,4,0,1,0,4,4A4,4,0,0,0,55,43Zm0,6a2,2,0,1,1,2-2A2,2,0,0,1,55,49Z"/></svg>