<svg id="home_garden" data-name="home garden" xmlns="http://www.w3.org/2000/svg" viewBox="0 0 75 75"><title>Artboard 1</title><path d="M29.12,40.3H27v2.13a5.78,5.78,0,0,0,5.77,5.77h2.13V46.07A5.78,5.78,0,0,0,29.12,40.3Z"/><path d="M43.88,40.3a5.78,5.78,0,0,0-5.77,5.77v2.13h2.13A5.78,5.78,0,0,0,46,42.42V40.3Z"/><path d="M58.76,33.26,36.5,11,14.24,33.26,9,38.5l2.28,2.28,3-3V66H34.89V51.42H32.76a9,9,0,0,1-9-9V37.08h5.35a9,9,0,0,1,7.38,3.86,9,9,0,0,1,7.38-3.86h5.35v5.35a9,9,0,0,1-9,9H38.11V66H58.76V37.82l3,3L64,38.5Z"/></svg>