<svg id="kids_babies_toys" data-name="kids babies toys" xmlns="http://www.w3.org/2000/svg" viewBox="0 0 75 75"><title>Artboard 1</title><path d="M40.74,25.24h3.16v9.84H40.74Z"/><path d="M59.09,52.08l-8-6a4.92,4.92,0,0,0-5.92,7.86l8,6s0,0,0-.06A8.09,8.09,0,0,1,59.09,52.08Z"/><path d="M56.38,33.61a8,8,0,0,1,2.71-1.34l-8-6a4.87,4.87,0,0,0-3-1h-1V35.56l.32.21,3.07,2.31Z"/><path d="M58.91,48l5.29-4a4.92,4.92,0,0,0-5.92-7.86l-8,6A8,8,0,0,1,53,43.51Z"/><path d="M61.25,55a4.92,4.92,0,1,0,4.92,4.92A4.92,4.92,0,0,0,61.25,55Z"/><path d="M34.41,38.24h3.16V64.79H34.41Z"/><path d="M12.16,38.24h3.16V64.79H12.16Z"/><path d="M37,17.32l-3.16-6.54H15.91l-3.16,6.54Z"/><path d="M31.25,35.07h6.33V20.49H34.41v4.75H28.09v9.84H21.65V25.24H15.32V20.49H12.16V35.07h6.33V64.79H31.25Zm-3.16,3.16v3.47H21.65V38.24ZM21.65,51.51h6.43V55H21.65Zm0-3.16V44.88h6.43v3.47Zm0,13.28V58.15h6.43v3.47Z"/></svg>