<svg id="mobile_tv_broadband" data-name="mobile tv broadband" xmlns="http://www.w3.org/2000/svg" viewBox="0 0 75 75"><title>Artboard 1</title><g id="Wi-Fi"><path d="M36.58,50.78a6,6,0,1,0,6,6A6,6,0,0,0,36.58,50.78ZM68.47,30A41.57,41.57,0,0,0,4.7,30,3,3,0,0,0,9.25,33.8a35.62,35.62,0,0,1,54.66,0A3,3,0,0,0,68.47,30ZM36.58,27A29.7,29.7,0,0,0,13.81,37.62a3,3,0,0,0,4.56,3.83,23.74,23.74,0,0,1,36.44,0,3,3,0,0,0,4.56-3.83A29.71,29.71,0,0,0,36.58,27Zm0,11.9a17.82,17.82,0,0,0-13.67,6.38,3,3,0,0,0,4.56,3.83,11.87,11.87,0,0,1,18.22,0,3,3,0,0,0,4.56-3.83A17.82,17.82,0,0,0,36.58,38.88Z"/></g></svg>