<svg id="monitoring" data-name="monitoring" xmlns="http://www.w3.org/2000/svg" viewBox="0 0 75 75"><title>Artboard 1</title><path d="M62.93,32.63l-.12-.13-2-2c1.69-.38,3.5-1.8,3.5-3.25,0-1.69-2.35-2.29-4.35-2.29s-2.34,1.43-2.36,2.45l-5.25-5.06a7.41,7.41,0,0,0-4.6-1.89H27.27a7.41,7.41,0,0,0-4.6,1.89l-5.25,5.06c0-1-.27-2.45-2.36-2.45s-4.35.6-4.35,2.29c0,1.45,1.82,2.86,3.51,3.25l-2,2-.12.13a11.4,11.4,0,0,0-3.6,7.81v7.44a6.79,6.79,0,0,0,1.86,4.67v2.89a3.11,3.11,0,0,0,3.15,3.06h3.81a3.11,3.11,0,0,0,3.15-3.06V54.7H54.56v.74a3.11,3.11,0,0,0,3.15,3.06h3.81a3.11,3.11,0,0,0,3.15-3.06V52.55a6.78,6.78,0,0,0,1.86-4.67V40.44A11.38,11.38,0,0,0,62.93,32.63Zm-38.33-8a5.25,5.25,0,0,1,2.67-1.08H47.73a5.25,5.25,0,0,1,2.67,1.08l6.88,6.67H17.72ZM10.83,39.32A3.26,3.26,0,0,1,14,36c1.77,0,7.55,3.39,7.55,5.23S15.81,42.63,14,42.63A3.26,3.26,0,0,1,10.83,39.32Zm9.61,12.12H15.6a6.88,6.88,0,0,1-2.21-1.07,3.14,3.14,0,0,1-.6-.61,2.38,2.38,0,0,1-.34-.61,2.8,2.8,0,0,1,.48-2.44h6.18l4.12,4.73Zm25.94,0H28.62a3.36,3.36,0,0,1-3.36-3.35H49.74A3.36,3.36,0,0,1,46.38,51.44Zm.78-5.64H27.84c-2,0-3.65-2.48-3.65-5.55H50.81C50.81,43.31,49.18,45.79,47.16,45.79Zm15.39,3.36a2.4,2.4,0,0,1-.34.61,3.07,3.07,0,0,1-.6.61,6.82,6.82,0,0,1-2.21,1.07H51.77l4.12-4.73h6.18A2.79,2.79,0,0,1,62.55,49.15ZM61,42.63c-1.77,0-7.55.42-7.55-1.41S59.2,36,61,36a3.32,3.32,0,0,1,0,6.63Z"/></svg>