<svg id="online_services" data-name="online services" xmlns="http://www.w3.org/2000/svg" viewBox="0 0 75 75"><title>Artboard 1</title><path d="M40,20.38c-.08-1.44-1.55-1.2-3-1.2A12.75,12.75,0,0,1,40,20.38Z"/><path d="M24.63,16.76A6,6,0,0,0,20.93,27.4a12.9,12.9,0,0,1,8.53-8.14A6,6,0,0,0,24.63,16.76Z"/><path d="M13.08,26.29a12.4,12.4,0,0,0,.87,2.1l-1.84,1.84a1.27,1.27,0,0,0,0,1.79l3.24,3.24a1.27,1.27,0,0,0,1.79,0L19,33.41c.28.15.58.23.87.36,0,0,0,0,0-.06a18.83,18.83,0,0,1,.48-4.25A8,8,0,1,1,31.57,18.83a13.93,13.93,0,0,1,4.51.13,12.05,12.05,0,0,0-.78-1.87l1.84-1.84a1.26,1.26,0,0,0,0-1.79l-3.24-3.24a1.26,1.26,0,0,0-1.78,0l-1.84,1.84a11.83,11.83,0,0,0-2.1-.87V8.6a1.26,1.26,0,0,0-1.26-1.26H22.34A1.27,1.27,0,0,0,21.08,8.6v2.6a12,12,0,0,0-2.1.87l-1.84-1.84a1.26,1.26,0,0,0-1.79,0l-3.24,3.24a1.27,1.27,0,0,0,0,1.79L14,17.09a12.09,12.09,0,0,0-.87,2.1h-2.6a1.26,1.26,0,0,0-1.26,1.26V25a1.26,1.26,0,0,0,1.26,1.26Z"/><path d="M52.74,50.79a6.5,6.5,0,1,0-6.56-11.23,23.51,23.51,0,0,1-2.78,6.66A19.56,19.56,0,0,1,52.74,50.79Z"/><path d="M66.25,42.62a1.36,1.36,0,0,0-1.36-1.36h-2.8A12.94,12.94,0,0,0,61.14,39l2-2a1.36,1.36,0,0,0,0-1.93l-3.49-3.49a1.36,1.36,0,0,0-1.93,0l-2,2a12.74,12.74,0,0,0-2.26-.94v-2.8a1.36,1.36,0,0,0-1.36-1.36H47.16a1.34,1.34,0,0,0-.86.33,18.57,18.57,0,0,1,.64,4.92,23.64,23.64,0,0,1-.25,3.37,8.44,8.44,0,0,1,2.93-.55,8.54,8.54,0,0,1,4.62,15.74,19.51,19.51,0,0,1,4,6.63,1.4,1.4,0,0,0,.45.09,1.36,1.36,0,0,0,1-.4l3.49-3.49a1.37,1.37,0,0,0,0-1.93l-2-2a12.88,12.88,0,0,0,.94-2.26h2.8a1.37,1.37,0,0,0,1.37-1.36Z"/><path d="M55.44,60.13A16.5,16.5,0,0,0,41.26,49a10.83,10.83,0,0,1-7.87,3.74A10.83,10.83,0,0,1,25.52,49a16.5,16.5,0,0,0-14.18,11.1l-1.17,3.45a3.25,3.25,0,0,0,3.07,4.29H53.53a3.25,3.25,0,0,0,3.07-4.29Z"/><path d="M22.88,33.71c0,7.73,4.7,16,10.51,16s10.51-8.29,10.51-16C43.9,17.69,22.88,17.66,22.88,33.71Z"/></svg>