<svg id="student" data-name="student" xmlns="http://www.w3.org/2000/svg" viewBox="0 0 75 75"><title>Artboard 1</title><path d="M17.84,41.88V52.22s9.92-4.13,18.71-4.13,18.71,4.13,18.71,4.13V41.74s-9.46-5-18.86-5S17.84,41.88,17.84,41.88Z"/><path d="M65.77,39.42l3.72-2-3.72-2.06v-1s1-5.31-4.91-2.54a1.1,1.1,0,0,0-.53.5L35.77,18.72,3.5,37.19l12.19,5.54v-1.8s10.23-5.74,20.71-5.74,21,5.58,21,5.58v3.14l6.73-3.61V54.92H61.91v5.2l3-2.06,3.31,2.06v-5.2H65.77V39.42Zm-1.63-5.94v1l-2-1.09C62.9,32.89,64.15,32.23,64.15,33.48Zm-.66,5.74a1.57,1.57,0,1,1,1.57-1.57A1.57,1.57,0,0,1,63.48,39.21Z"/></svg>