<svg id="technology_electrical" data-name="technology electrical" xmlns="http://www.w3.org/2000/svg" viewBox="0 0 75 75"><title>Artboard 1</title><path d="M32.3,21h-.78a1.6,1.6,0,0,0-1.66,1.52v6.46H34V22.49A1.6,1.6,0,0,0,32.3,21Z"/><path d="M43.31,21h-.78a1.6,1.6,0,0,0-1.66,1.52v6.46H45V22.49A1.6,1.6,0,0,0,43.31,21Z"/><path d="M37.41,9.67a28.94,28.94,0,0,0-9,56.44,2.79,2.79,0,1,0,1.73-5.3,23.46,23.46,0,0,1-9.29-5.73,23.36,23.36,0,1,1,33.08,0c-1.69,1.52-5.89,4.57-8.41,4.57a3.82,3.82,0,0,1-3-1.28c-2-2.22-2.43-6.72-2.41-9.85a9.14,9.14,0,0,0,8.69-9.13V30.76H26.08v8.67a9.15,9.15,0,0,0,8.4,9.11c0,3.73.49,9.85,3.83,13.58a9.4,9.4,0,0,0,7.21,3.14c5.39,0,11.53-5.45,12.21-6.06l.09-.08A28.94,28.94,0,0,0,37.41,9.67Z"/></svg>