<svg id="travel" data-name="travel" xmlns="http://www.w3.org/2000/svg" viewBox="0 0 75 75"><title>Artboard 1</title><path d="M37.56,19.2A20.17,20.17,0,1,0,57.73,39.37,20.19,20.19,0,0,0,37.56,19.2Zm0,38.59A18.42,18.42,0,1,1,56,39.37,18.44,18.44,0,0,1,37.56,57.78Z"/><path d="M46,21.06a.89.89,0,0,0-.25-.07l-.2,0a.87.87,0,0,0-.81.34.88.88,0,0,0-.11.87c.6,1.44,1.32,4.35.4,5L43,28a4.54,4.54,0,0,0-2.82,3.69v.1a.54.54,0,0,1-.45.47.62.62,0,0,1-.67-.29l-.87-1.45a1.67,1.67,0,0,0-3,.15,22.2,22.2,0,0,0-2,6.08,3.2,3.2,0,0,0,.32,1.81l1,2a4.42,4.42,0,0,0,1.59,1.75,11.49,11.49,0,0,1,2.54,2.1,5.28,5.28,0,0,0,3.21,1.88c0,1.64.06,4.34,1.18,5.54a2,2,0,0,0,1.42.66,3.78,3.78,0,0,0,.49,0,4.27,4.27,0,0,0,2.73-1c1.38-1.14,2.09-3.16,2.11-6L51.09,40l.48.79a2.67,2.67,0,0,0,3.89.76l1.92-1.44a.88.88,0,0,0,.35-.7A20.24,20.24,0,0,0,46,21.06Zm8.39,19a.92.92,0,0,1-1.34-.26l-.91-1.52a1.42,1.42,0,0,0-2.6.42L48.1,45.32a.86.86,0,0,0,0,.19c0,2.28-.5,3.91-1.45,4.71a2.5,2.5,0,0,1-1.89.57c-.11,0-.2.07-.38-.13-.55-.58-.82-2.62-.67-5a1,1,0,0,0-1-1.08A3.45,3.45,0,0,1,40,43.32a12.91,12.91,0,0,0-3-2.46,2.65,2.65,0,0,1-1-1.06l-1-2A1.45,1.45,0,0,1,35,37a20.76,20.76,0,0,1,1.79-5.41l.8,1.33A2.36,2.36,0,0,0,40.08,34,2.29,2.29,0,0,0,41.92,32l0-.14a2.78,2.78,0,0,1,1.72-2.27l2.11-.85.13-.06c1.67-1,1.45-3.43,1-5.21A18.5,18.5,0,0,1,56,38.93Z"/><path d="M33.42,51.53,32.89,51a7.1,7.1,0,0,0-2.24-1.51L28,48.33a3,3,0,0,1-1.79-2.72V44.29A2.46,2.46,0,0,0,22.83,42l-4.21,1.58a.88.88,0,0,0-.54,1A20.28,20.28,0,0,0,33.61,59.15l.17,0a.88.88,0,0,0,.84-.64l.32-1.12A6,6,0,0,0,33.42,51.53Zm-.16,5.39-.09.33A18.54,18.54,0,0,1,20,44.92l3.45-1.29a.71.71,0,0,1,1,.66v1.32a4.71,4.71,0,0,0,2.86,4.33L30,51.1a5.37,5.37,0,0,1,1.69,1.14l.53.53A4.23,4.23,0,0,1,33.26,56.92Z"/><path d="M28.37,22.24a.88.88,0,0,0-1.13-.2,20.14,20.14,0,0,0-9.82,16.25.88.88,0,0,0,.88.92.9.9,0,0,0,.32-.06L24.05,37a2.66,2.66,0,0,0,1.53-3.3.9.9,0,0,1,.22-.92l2.53-2.53A4.54,4.54,0,0,0,29.67,27V25.88A5.8,5.8,0,0,0,28.37,22.24ZM27.91,27a2.79,2.79,0,0,1-.83,2l-2.53,2.53a2.64,2.64,0,0,0-.64,2.72.9.9,0,0,1-.52,1.12L19.29,37a18.39,18.39,0,0,1,8.14-13,4,4,0,0,1,.48,1.89V27Z"/><path d="M37.56,12.18a26.73,26.73,0,0,0-2.72.14.88.88,0,0,0,.09,1.75H35a25.22,25.22,0,0,1,2.54-.13.88.88,0,0,0,0-1.75Z"/><path d="M13.35,42.62A24.83,24.83,0,0,1,13,38.49q0-.44,0-.88a.88.88,0,0,0-1.75-.06q0,.47,0,.94a26.65,26.65,0,0,0,.37,4.42.88.88,0,0,0,.86.73h.15A.88.88,0,0,0,13.35,42.62Z"/><path d="M17,51.9a24.53,24.53,0,0,1-2.3-4.46.88.88,0,0,0-1.63.64,26.32,26.32,0,0,0,2.46,4.77.88.88,0,1,0,1.47-1Z"/><path d="M15,26.76a.88.88,0,0,0-1.17.41A26.15,26.15,0,0,0,12,32.23a.88.88,0,0,0,.64,1.06l.21,0a.88.88,0,0,0,.85-.67,24.42,24.42,0,0,1,1.68-4.72A.88.88,0,0,0,15,26.76Z"/><path d="M21.5,18.75a.88.88,0,0,0-1.24-.08,26.55,26.55,0,0,0-3.67,3.92A.88.88,0,1,0,18,23.65,24.72,24.72,0,0,1,21.42,20,.88.88,0,0,0,21.5,18.75Z"/><path d="M33.28,62.68a24.48,24.48,0,0,1-4.82-1.37.88.88,0,1,0-.65,1.63A26.17,26.17,0,0,0,33,64.4h.15a.88.88,0,0,0,.15-1.74Z"/><path d="M44.31,63a.88.88,0,0,0-1.06-.65,24.61,24.61,0,0,1-5,.65.88.88,0,0,0,0,1.75h0a26.39,26.39,0,0,0,5.33-.7A.88.88,0,0,0,44.31,63Z"/><path d="M30.68,14a.88.88,0,0,0-1.1-.57,26.21,26.21,0,0,0-4.93,2.15.88.88,0,0,0,.86,1.53,24.41,24.41,0,0,1,4.6-2A.88.88,0,0,0,30.68,14Z"/><path d="M24,59a24.71,24.71,0,0,1-3.88-3.18A.88.88,0,1,0,18.9,57a26.55,26.55,0,0,0,4.15,3.41A.88.88,0,0,0,24,59Z"/><path d="M51.47,59.81a.88.88,0,0,0-1.21-.3A24.64,24.64,0,0,1,48,60.71a.88.88,0,1,0,.75,1.59A26.23,26.23,0,0,0,51.17,61,.88.88,0,0,0,51.47,59.81Z"/><path d="M63.68,51.11A.88.88,0,0,0,62.45,51l-7.89,6.14a.88.88,0,0,0-.34.69v2.63a.88.88,0,0,0,1.75,0v-2.2l7.55-5.88A.88.88,0,0,0,63.68,51.11Z"/><path d="M55.38,57l-2.63-.88a.88.88,0,0,0-.56,1.66l2.63.88A.88.88,0,0,0,55.38,57Z"/><path d="M62.05,58.33,60.3,53.95a.88.88,0,0,0-.36-.43l-4.39-2.63a.88.88,0,1,0-.9,1.5l4.13,2.48L60.42,59a.88.88,0,0,0,.81.55.85.85,0,0,0,.33-.06A.88.88,0,0,0,62.05,58.33Z"/></svg>