<svg id="Layer_1" data-name="Layer 1" xmlns="http://www.w3.org/2000/svg" viewBox="0 0 75 75"><title>Artboard 1</title><path d="M36.58,11.5A27.08,27.08,0,1,0,63.67,38.58,27.08,27.08,0,0,0,36.58,11.5Zm-6.69,2.74A23,23,0,0,0,24,23.38a39.58,39.58,0,0,1-5.9-1.94A25.25,25.25,0,0,1,29.89,14.24ZM16.82,22.88a40.69,40.69,0,0,0,6.55,2.31,43.67,43.67,0,0,0-2,12.48v0h-10A25.11,25.11,0,0,1,16.82,22.88Zm0,31.31a25.11,25.11,0,0,1-5.44-14.75l10,0a43.67,43.67,0,0,0,2,12.51A40.7,40.7,0,0,0,16.82,54.19Zm1.24,1.51v-.07A39.55,39.55,0,0,1,24,53.69a23,23,0,0,0,5.93,9.24A25.25,25.25,0,0,1,18.06,55.7Zm17.61,8.06c-4.09-.52-7.67-4.49-9.94-10.38a54.1,54.1,0,0,1,9.94-1.06Zm0-13.34a55.8,55.8,0,0,0-10.55,1.14A42.52,42.52,0,0,1,23.19,39.5v0H35.67Zm0-12.78H23.19a42.52,42.52,0,0,1,1.92-12.17,55.81,55.81,0,0,0,10.55,1.22Zm0-12.78a54.14,54.14,0,0,1-9.94-1c2.28-5.92,5.85-9.87,9.94-10.4ZM56.35,23a25.11,25.11,0,0,1,5.44,14.75h-10a43.67,43.67,0,0,0-2-12.54A40.7,40.7,0,0,0,56.35,23ZM55.1,21.47a39.58,39.58,0,0,1-5.9,1.94,23,23,0,0,0-5.92-9.17A25.24,25.24,0,0,1,55.1,21.47ZM37.5,13.41c4.09.52,7.67,4.49,9.94,10.38a54.13,54.13,0,0,1-9.94,1.06Zm0,13.27A55.78,55.78,0,0,0,48,25.53,42.52,42.52,0,0,1,50,37.71H37.5Zm0,12.85H50A42.52,42.52,0,0,1,48,51.71,55.8,55.8,0,0,0,37.5,50.49Zm0,24.22V52.31a54.11,54.11,0,0,1,9.94,1C45.16,59.28,41.59,63.23,37.5,63.76Zm5.78-.83a22.94,22.94,0,0,0,5.93-9.15,39.55,39.55,0,0,1,5.9,1.94A25.25,25.25,0,0,1,43.28,62.93Zm13.07-8.64A40.68,40.68,0,0,0,49.8,52a43.67,43.67,0,0,0,2-12.48v0h10A25.11,25.11,0,0,1,56.35,54.29Z"/></svg>