<svg xmlns="http://www.w3.org/2000/svg" width="658.318" height="413.637"><defs><clipPath id="clip-path"><path id="Rectangle_829" data-name="Rectangle 829" fill="none" d="M0 0h474.271v343.548H0z"/></clipPath></defs><g id="Group_9110" data-name="Group 9110" transform="translate(-380.016 -4557)"><g id="Group_2987" data-name="Group 2987" transform="translate(381 4650.599)"><g id="Group_2971" data-name="Group 2971" transform="translate(72.148)"><g id="Group_2970" data-name="Group 2970"><path id="Line_40" data-name="Line 40" fill="none" stroke="#ded8d5" stroke-miterlimit="10" stroke-width="1.968" d="M0 33.804h510.012"/><rect id="Rectangle_815" data-name="Rectangle 815" width="510.012" height="319.054" rx="6.521" fill="none" stroke="#f4f4f4" stroke-miterlimit="10" stroke-width="1.968"/><g id="Group_2969" data-name="Group 2969" transform="translate(24.551 12.53)"><path id="Path_5242" data-name="Path 5242" d="M159.185 142.793a4.717 4.717 0 11-4.717-4.716 4.717 4.717 0 014.717 4.716z" transform="translate(-149.751 -138.077)" fill="#ffb1a5"/><path id="Path_5243" data-name="Path 5243" d="M176.937 142.793a4.717 4.717 0 11-4.716-4.716 4.717 4.717 0 014.716 4.716z" transform="translate(-149.171 -138.077)" fill="#ead254"/><path id="Path_5244" data-name="Path 5244" d="M194.69 142.793a4.717 4.717 0 11-4.717-4.716 4.717 4.717 0 014.717 4.716z" transform="translate(-148.592 -138.077)" fill="#00857b"/></g></g></g><g id="Group_2980" data-name="Group 2980" transform="translate(521.77 23.204)"><g id="Group_2974" data-name="Group 2974"><g id="Group_2973" data-name="Group 2973"><g id="Group_2972" data-name="Group 2972"><rect id="Rectangle_816" data-name="Rectangle 816" width="133.567" height="124.459" rx="5.991" fill="#f4f4f4"/><rect id="Rectangle_817" data-name="Rectangle 817" width="133.567" height="124.459" rx="5.991" fill="none" stroke="#ded8d5" stroke-miterlimit="10" stroke-width="1.968"/></g></g></g><g id="Group_2979" data-name="Group 2979" transform="translate(29.268 28.023)"><g id="Group_2977" data-name="Group 2977"><g id="Group_2976" data-name="Group 2976"><g id="Group_2975" data-name="Group 2975"><rect id="Rectangle_818" data-name="Rectangle 818" width="75.427" height="64.06" rx="6.022" transform="rotate(180 37.714 32.03)" fill="#b3e499"/></g></g></g><g id="Group_2978" data-name="Group 2978" transform="translate(20.111 19.338)" fill="none" stroke="#fff" stroke-linecap="round" stroke-linejoin="round" stroke-width="1.647"><path id="Path_5245" data-name="Path 5245" d="M649.492 217.62h-34.809v-23.344h34.808v23.344z" transform="translate(-614.683 -194.276)"/><path id="Path_5246" data-name="Path 5246" d="M614.683 194.276l17.4 13.716 17.4-13.716" transform="translate(-614.683 -194.276)"/></g></g></g><g id="Group_2986" data-name="Group 2986" transform="translate(0 128.949)"><g id="Group_2983" data-name="Group 2983"><g id="Group_2982" data-name="Group 2982"><g id="Group_2981" data-name="Group 2981"><path id="Path_5340" data-name="Path 5340" d="M5.713 0h115.955a5.713 5.713 0 015.713 5.713v101.145a5.713 5.713 0 01-5.713 5.713H5.713A5.713 5.713 0 010 106.858V5.713A5.713 5.713 0 015.713 0z" fill="#f4f4f4"/><rect id="Rectangle_820" data-name="Rectangle 820" width="127.381" height="112.571" rx="5.713" fill="none" stroke="#f4f4f4" stroke-miterlimit="10" stroke-width="1.968"/></g></g></g><g id="Group_2985" data-name="Group 2985" transform="translate(26.562 19.28)"><rect id="Rectangle_821" data-name="Rectangle 821" width="73.657" height="71.603" rx="6.639" fill="#ffb1a5"/><g id="Group_2984" data-name="Group 2984" transform="translate(16.487 15.679)"><path id="Path_5247" data-name="Path 5247" d="M103.863 290.733a20.825 20.825 0 1029.451 0 20.908 20.908 0 00-29.451 0zm29.4 3h-6.633a42.226 42.226 0 00-2.581-6.254 18.812 18.812 0 019.218 6.253zm-22.325 10.509a33.7 33.7 0 01.986-8.074h13.321a33.644 33.644 0 01.986 8.074zm15.212 2.435a39.677 39.677 0 01-1.43 8.074h-12.266a39.6 39.6 0 01-1.431-8.074zm-7.565-20a18.917 18.917 0 012.942.228 38.266 38.266 0 013.019 6.832h-11.919a38.266 38.266 0 013.019-6.832 18.927 18.927 0 012.942-.234zm-5.461.807a42.108 42.108 0 00-2.58 6.254h-6.637a18.8 18.8 0 019.221-6.26zm-10.872 8.689h7.6a36.235 36.235 0 00-1.065 8.074h-8.946a18.689 18.689 0 012.415-8.08zm0 18.584a18.671 18.671 0 01-2.415-8.074h8.989a39.233 39.233 0 001.268 8.074zm1.655 2.435h6.905a50.525 50.525 0 002.567 6.33 18.8 18.8 0 01-9.468-6.337zm14.677 7.061a18.969 18.969 0 01-2.461-.16 56.055 56.055 0 01-2.912-6.9h10.747a56.376 56.376 0 01-2.912 6.9 19 19 0 01-2.458.154zm5.206-.731a50.457 50.457 0 002.566-6.33h6.906a18.8 18.8 0 01-9.468 6.324zm11.127-8.765h-7.842a39.073 39.073 0 001.268-8.074h8.989a18.675 18.675 0 01-2.411 8.067zm2.415-10.509h-8.952a36.234 36.234 0 00-1.065-8.074h7.6a18.689 18.689 0 012.421 8.067z" transform="translate(-97.797 -284.667)" fill="#fff"/></g></g></g></g><g id="Group_2998" data-name="Group 2998" transform="translate(386.965 4557)"><path id="Path_5248" data-name="Path 5248" d="M170.514 97.68H65.8a3.917 3.917 0 01-3.917-3.917 3.917 3.917 0 013.917-3.917h104.71a3.917 3.917 0 013.917 3.917 3.917 3.917 0 01-3.913 3.917z" transform="translate(-61.887 -33.523)" fill="#296edd"/><path id="Path_5249" data-name="Path 5249" d="M696.081 345.364h-50.822a3.917 3.917 0 01-3.917-3.917 3.917 3.917 0 013.917-3.917h50.822a3.917 3.917 0 013.919 3.917 3.917 3.917 0 01-3.919 3.917z" transform="translate(-48.629 -25.435)" fill="#56dfed"/><rect id="Rectangle_822" data-name="Rectangle 822" width="12.12" height="11.739" rx="2.861" transform="translate(602.692 353.5)" fill="#c98bd2"/><rect id="Rectangle_823" data-name="Rectangle 823" width="12.12" height="11.739" rx="2.861" transform="translate(19.694 380.636)" fill="#ffb1a5"/><g id="Group_2990" data-name="Group 2990" transform="translate(393.588 28.657)"><g id="Group_2989" data-name="Group 2989"><rect id="Rectangle_824" data-name="Rectangle 824" width="109.572" height="31.454" rx="3.012" fill="#296edd"/><g id="Group_2988" data-name="Group 2988" transform="translate(14.925 11.208)" fill="none" stroke="#fff" stroke-miterlimit="10" stroke-width="1.18"><path id="Line_41" data-name="Line 41" d="M0 0h73.502"/><path id="Line_42" data-name="Line 42" transform="translate(0 7.544)" d="M0 0h29.939"/></g></g><path id="Path_5250" data-name="Path 5250" d="M458.571 90.068v12.258l15.417-12.258z" transform="translate(-446.636 -62.172)" fill="#518ff2"/></g><g id="Group_2997" data-name="Group 2997" transform="translate(189.58)"><g id="Group_2995" data-name="Group 2995"><g id="Group_2994" data-name="Group 2994"><g id="Group_2993" data-name="Group 2993"><g id="Group_2992" data-name="Group 2992"><g id="Group_2991" data-name="Group 2991"><path id="Rectangle_825" data-name="Rectangle 825" d="M6.46 0h52.58a6.46 6.46 0 016.46 6.46v49.062a6.46 6.46 0 01-6.46 6.46H8.521A8.521 8.521 0 010 53.462v-47A6.46 6.46 0 016.46 0z" fill="#56dfed"/></g></g></g></g></g><g id="Group_2996" data-name="Group 2996" transform="translate(18.71 13.73)"><path id="Path_5251" data-name="Path 5251" d="M294.69 70.445l-3.73-3.73a3.267 3.267 0 00-2.4-1.132 3.454 3.454 0 00-2.4 1.065l-2.13 2.131-.4-.2a6.139 6.139 0 01-.666-.334 22.963 22.963 0 01-5.528-5.061 12.093 12.093 0 01-1.732-2.731c.533-.466 1-1 1.465-1.464l.6-.6a3.248 3.248 0 000-4.928l-1.861-1.861a6.047 6.047 0 01-.6-.666l-1.266-1.266a3.452 3.452 0 00-2.4-1.065 3.3 3.3 0 00-2.4 1.065L266.917 52a5.358 5.358 0 00-1.531 3.263 12.116 12.116 0 00.866 5.061 27.239 27.239 0 005.194 8.725 32.377 32.377 0 0010.654 8.322 17.688 17.688 0 005.995 1.8h.466a5.288 5.288 0 004-1.732l.066-.066a10.25 10.25 0 011.2-1.2l.866-.865a3.342 3.342 0 00-.003-4.863zm-1.532 3.463l-.8.8c-.466.4-.865.866-1.332 1.332a3.165 3.165 0 01-2.4 1h-.326a14.027 14.027 0 01-5.194-1.6 30.315 30.315 0 01-9.924-7.792 28.887 28.887 0 01-4.862-8.059 8.251 8.251 0 01-.8-4.13 2.807 2.807 0 01.932-1.931l2.265-2.265a1.4 1.4 0 01.932-.466 1.269 1.269 0 01.931.466l1.2 1.2a6.234 6.234 0 00.666.666l1.865 1.865a1.559 1.559 0 01.467.932 1.4 1.4 0 01-.467.932l-.6.6-1.666 1.666-.066.066a1.458 1.458 0 00-.4 1.665v.067a15.369 15.369 0 002.2 3.6 24.727 24.727 0 006.061 5.528 5.547 5.547 0 00.866.466 6.236 6.236 0 01.666.334l.066.066a1.529 1.529 0 001.865-.333l2.331-2.332a1.1 1.1 0 011.8 0l3.729 3.73a1.26 1.26 0 01-.005 1.926z" transform="translate(-265.365 -48.6)" fill="#fff"/></g></g></g><g id="Group_3059" data-name="Group 3059" transform="translate(494.986 4625.271)" clip-path="url(#clip-path)"><g id="Group_3058" data-name="Group 3058" transform="translate(3.1 4.169)"><g id="Group_3020" data-name="Group 3020" transform="translate(265.668 13.125)"><g id="Group_3000" data-name="Group 3000" transform="translate(5.784 206.076)"><path id="Path_5252" data-name="Path 5252" d="M517.48 322.741l-37.693-5.019.294 3.742-32.228 4.292s-20.773 52.117-2.465 166.738H471.6l9.435-116.224h3.351l9.138 116.224h26.216c18.313-114.621-2.26-169.753-2.26-169.753z" transform="translate(-437.845 -317.722)" fill="#8e716c"/><path id="Line_43" data-name="Line 43" fill="none" stroke="#282828" stroke-linecap="round" stroke-linejoin="round" stroke-width="1.233" d="M31.209 58.548H58.56"/></g><g id="Group_3009" data-name="Group 3009" transform="translate(0 104.875)"><g id="Group_3006" data-name="Group 3006" transform="translate(83.662 31.438)"><g id="Group_3002" data-name="Group 3002" transform="translate(0 14.719)"><g id="Group_3001" data-name="Group 3001"><path id="Path_5253" data-name="Path 5253" d="M537.031 269.5c-3.225-5.148-21.34-4.965-22.3-5.078-4.9-.574 3.14 38.394 13.327 72.457a11.437 11.437 0 0015.414 7.272l.2-.086a11.453 11.453 0 006.791-12.672c-4.838-25.701-9.702-55.94-13.432-61.893z" transform="translate(-513.261 -264.418)" fill="#ffb1a5"/></g><path id="Path_5254" data-name="Path 5254" d="M541.26 283.239l-23.128 8.975-2.168-10.973 23.949-5.974z" transform="translate(-513.172 -264.064)" fill="#f3978e"/><path id="Path_5255" data-name="Path 5255" d="M545.021 304.553s-10.956 14.714-10.434 14.038 8.593-23.779 8.593-23.779z" transform="translate(-512.565 -263.425)" fill="#f3978e"/></g><g id="Group_3005" data-name="Group 3005" transform="translate(14.309)"><path id="Path_5256" data-name="Path 5256" d="M560.929 285.092l-31.405 40.691a11.548 11.548 0 002.854 16.741 11.548 11.548 0 0016.44-4.183l26.141-48.229z" transform="translate(-527.117 -249.024)" fill="#ffb1a5"/><g id="Group_3003" data-name="Group 3003" transform="translate(32.965 18.9)" fill="#ffb1a5"><path id="Path_5257" data-name="Path 5257" d="M568.015 296.011a12.955 12.955 0 1116.31-8.345 12.955 12.955 0 01-16.31 8.345z" transform="translate(-559.039 -268.393)"/><path id="Path_5258" data-name="Path 5258" d="M581.424 275.97s3.545-3.681-2.744-6.261-14.066-1.988-19.03 10.065z" transform="translate(-559.019 -268.467)"/></g><g id="Group_3004" data-name="Group 3004" transform="translate(41.087)"><path id="Path_5259" data-name="Path 5259" d="M587.662 250.835l13.15 5.7a1.356 1.356 0 01.595 1.937l-17.3 32.312a1.654 1.654 0 01-2.054.789l-13.15-5.7a1.355 1.355 0 01-.595-1.937l17.3-32.312a1.654 1.654 0 012.054-.789z" transform="translate(-566.865 -250.146)" fill="#372f5f"/><path id="Path_5260" data-name="Path 5260" d="M586.446 250.281l13.15 5.7a1.356 1.356 0 01.595 1.937l-17.3 32.312a1.654 1.654 0 01-2.054.789l-13.15-5.7a1.355 1.355 0 01-.595-1.937l17.3-32.312a1.654 1.654 0 012.054-.789z" transform="translate(-566.904 -250.164)" fill="#261b43"/><path id="Path_5261" data-name="Path 5261" d="M584.837 253.461l11.554 5.01-14.1 26.334-11.552-5.005z" transform="translate(-566.779 -250.057)" fill="#e6e6e6"/><path id="Path_5262" data-name="Path 5262" d="M596.391 258.47l-25.652 21.33 14.1-26.334z" transform="translate(-566.779 -250.057)" fill="#fff"/></g><path id="Path_5263" data-name="Path 5263" d="M574.755 268.631a20.98 20.98 0 015.571 2.067 2.975 2.975 0 011.438 3.3 2.954 2.954 0 01-2.5 2.217l-6.836.862s-3.567 6.147-8.227 6.838l4.275-10.794z" transform="translate(-525.906 -249.561)" fill="#ffb1a5"/></g></g><g id="Group_3008" data-name="Group 3008"><g id="Group_3007" data-name="Group 3007"><path id="Path_5264" data-name="Path 5264" d="M491.759 219.721c-.755 0 48.479 6.812 56.6 62.945l-25.548 3.915-5.151 42.376h-71.27l-14.149-78.3s15.79-22.63 45.108-30.939z" transform="translate(-432.244 -219.721)" fill="#56dfed"/><path id="Line_44" data-name="Line 44" fill="none" stroke="#282828" stroke-linecap="round" stroke-linejoin="round" stroke-width="1.233" d="M90.571 66.859l2.218-24.509"/></g></g></g><g id="Group_3019" data-name="Group 3019" transform="translate(22.191)"><path id="Path_5265" data-name="Path 5265" d="M495.325 221.115v-19.5h-22.849v19.727a44.376 44.376 0 00-6.138 2.49l17.821 10.615 18.218-10.616a29.724 29.724 0 00-7.052-2.716z" transform="translate(-453.322 -115.438)" fill="#ffb1a5"/><path id="Path_5266" data-name="Path 5266" d="M472.077 204.114s4.1 10.9 15.057 9.955C497.2 213.2 495.6 198.1 495.6 198.1z" transform="translate(-453.134 -115.552)" fill="#282828"/><g id="Group_3012" data-name="Group 3012" transform="translate(0 60.386)"><path id="Path_5267" data-name="Path 5267" d="M462.711 190.324c-3.581 3.249-11.589-9.073-8.129-12.532s6.1 1.968 6.1 1.968l1.546 3.677 1.165 4.982.278 1.305z" transform="translate(-453.733 -176.639)" fill="#f3978e"/><g id="Group_3011" data-name="Group 3011" transform="translate(2.522 5.339)"><g id="Group_3010" data-name="Group 3010"><path id="Path_5268" data-name="Path 5268" d="M0 .179s2.711-1.22 5.119 2.711" fill="none" stroke="#282828" stroke-linecap="round" stroke-linejoin="round" stroke-width=".993"/></g></g></g><g id="Group_3015" data-name="Group 3015" transform="translate(50.426 60.542)"><path id="Path_5269" data-name="Path 5269" d="M503.47 189.945c3.293 3.54 12.314-8.06 9.16-11.8s-6.245 1.445-6.245 1.445l-1.849 3.534-1.583 4.865-.386 1.276z" transform="translate(-502.565 -176.791)" fill="#f3978e"/><g id="Group_3014" data-name="Group 3014" transform="translate(2.698 5.286)"><g id="Group_3013" data-name="Group 3013"><path id="Path_5270" data-name="Path 5270" d="M5.331.277S2.731-1.168 0 2.545" fill="none" stroke="#282828" stroke-linecap="round" stroke-linejoin="round" stroke-width=".993"/></g></g></g><g id="Group_3016" data-name="Group 3016" transform="translate(2.696 22.379)"><path id="Path_5271" data-name="Path 5271" d="M456.344 167.241c0 16.31 12.435 24.043 27.775 24.043s27.774-7.734 27.774-24.043-12.435-27.407-27.774-27.407-27.775 11.096-27.775 27.407z" transform="translate(-456.344 -139.834)" fill="#282828"/></g><path id="Path_5272" data-name="Path 5272" d="M460 168.256a111.5 111.5 0 002.827 24.786c1.383 6 5.273 10.2 10.771 13.576l1 .615a18.9 18.9 0 0019.24.213c5.956-3.473 10.128-8.052 11.411-14.494a162.993 162.993 0 002.59-24.7s2.221-25.275-23.579-24.785S460 168.256 460 168.256z" transform="translate(-453.529 -117.337)" fill="#ffb1a5"/><g id="Group_3018" data-name="Group 3018" transform="translate(5.938 49.033)"><path id="Path_5273" data-name="Path 5273" d="M22.888 16.311v3.5a1.591 1.591 0 00.113.588 1.559 1.559 0 001.858.859l1.6-.425" fill="none" stroke="#282828" stroke-linecap="round" stroke-linejoin="round" stroke-width="1.232"/><path id="Path_5274" data-name="Path 5274" d="M478.08 168.361l-12.821 3.006s.582-3.263 5.828-4.45 6.993 1.444 6.993 1.444z" transform="translate(-459.295 -165.614)" fill="#282828"/><path id="Path_5275" data-name="Path 5275" d="M488.7 168.361l12.382 3.006s-.563-3.263-5.628-4.45-6.754 1.444-6.754 1.444z" transform="translate(-458.53 -165.614)" fill="#282828"/><ellipse id="Ellipse_207" data-name="Ellipse 207" cx="2.162" cy="2.157" rx="2.162" ry="2.157" transform="translate(11.752 10.01)" fill="#282828"/><path id="Path_5276" data-name="Path 5276" d="M495.041 177.5a2.162 2.162 0 11-2.162-2.157 2.159 2.159 0 012.162 2.157z" transform="translate(-458.464 -165.329)" fill="#282828"/><path id="Path_5277" data-name="Path 5277" d="M475.052 190.172h16.675s-7.39 8.99-16.675 0z" transform="translate(-458.975 -164.845)" fill="#fff"/><g id="Group_3017" data-name="Group 3017" fill="none" stroke="#c98bd2" stroke-miterlimit="10" stroke-width="1.342"><circle id="Ellipse_208" data-name="Ellipse 208" cx="9.196" cy="9.196" r="9.196" transform="rotate(-45 15.698 6.503)"/><circle id="Ellipse_209" data-name="Ellipse 209" cx="9.196" cy="9.196" r="9.196" transform="rotate(-45 26.993 -20.766)"/><path id="Path_5278" data-name="Path 5278" d="M480.982 178.268s2.178-2.032 4.2 0" transform="translate(-458.781 -165.263)"/><path id="Line_45" data-name="Line 45" transform="translate(.912 12.931)" d="M2.896.073L0 0"/><path id="Line_46" data-name="Line 46" transform="translate(44.79 12.931)" d="M0 .073L2.914 0"/></g></g><path id="Path_5279" data-name="Path 5279" d="M506.269 176.475s-10.315-13.945-7.936-28.073a20.325 20.325 0 019.65 13.8c1.994 9.943-1.714 14.273-1.714 14.273z" transform="translate(-452.288 -117.175)" fill="#282828"/><path id="Path_5280" data-name="Path 5280" d="M460.028 177.45s11.983-15.839 9.6-29.967a23.594 23.594 0 00-10.3 14.746c-1.995 9.946.7 15.221.7 15.221z" transform="translate(-453.574 -117.205)" fill="#282828"/><path id="Path_5281" data-name="Path 5281" d="M506.734 154.16s-13.246 14.5-49.485 12.018c0 0 5.549-21.278 23.112-23.545 0 0 20.278-2.421 26.373 11.527z" transform="translate(-453.618 -117.369)" fill="#282828"/><circle id="Ellipse_210" data-name="Ellipse 210" cx="17.303" cy="17.303" r="17.303" transform="rotate(-80.831 36.233 -1.91)" fill="#282828"/></g></g><g id="Group_3034" data-name="Group 3034" transform="translate(24.304 32.449)"><path id="Path_5282" data-name="Path 5282" d="M302.238 322.8l-32.228-4.292.294-3.743-37.693 5.02s-20.573 55.132-2.265 169.753h26.216l9.138-116.227h3.351l9.435 116.224H304.7c18.311-114.62-2.462-166.735-2.462-166.735z" transform="translate(-197.722 -131.067)" fill="#282828"/><g id="Group_3029" data-name="Group 3029" transform="translate(18.741)"><path id="Path_5283" data-name="Path 5283" d="M299.866 171.743a59.433 59.433 0 01-10.822-19.518c-3.186-9.018-13.62-5.352-13.62-5.352s-8.694-11.185-21.777-7.29-17.628 13.206-17.895 24.274-8.973 12.8-15.677 25.6c-11.834 22.6 8.091 41.645 44.362 36.363l.05-.352a38.059 38.059 0 0013.292 1.241c43.575-2.583 39.37-34.634 22.087-54.966z" transform="translate(-216.662 -136.814)" fill="#282828"/><g id="Group_3023" data-name="Group 3023" transform="translate(67.98 38.006)"><path id="Path_5284" data-name="Path 5284" d="M283.451 187.366c3.581 3.248 11.59-9.073 8.129-12.532s-6.1 1.968-6.1 1.968l-1.545 3.677-1.165 4.982-.278 1.3z" transform="translate(-282.492 -173.68)" fill="#f3978e"/><g id="Group_3022" data-name="Group 3022" transform="translate(2.297 5.339)"><g id="Group_3021" data-name="Group 3021"><path id="Path_5285" data-name="Path 5285" d="M5.119.179S2.408-1.041 0 2.889" fill="none" stroke="#282828" stroke-linecap="round" stroke-linejoin="round" stroke-width=".993"/></g></g></g><g id="Group_3026" data-name="Group 3026" transform="translate(16.768 38.163)"><path id="Path_5286" data-name="Path 5286" d="M242.717 186.987c-3.293 3.539-12.314-8.06-9.16-11.8s6.245 1.446 6.245 1.446l1.849 3.534 1.583 4.865.386 1.276z" transform="translate(-232.899 -173.832)" fill="#f3978e"/><g id="Group_3025" data-name="Group 3025" transform="translate(2.694 5.287)"><g id="Group_3024" data-name="Group 3024"><path id="Path_5287" data-name="Path 5287" d="M0 .277s2.6-1.445 5.331 2.268" fill="none" stroke="#282828" stroke-linecap="round" stroke-linejoin="round" stroke-width=".993"/></g></g></g><g id="Group_3027" data-name="Group 3027" transform="translate(19.672)"><path id="Path_5288" data-name="Path 5288" d="M291.26 164.282c0 16.31-12.434 24.044-27.774 24.044s-27.774-7.735-27.774-24.044 12.435-27.406 27.774-27.406 27.774 11.096 27.774 27.406z" transform="translate(-235.711 -136.876)" fill="#282828"/></g><path id="Rectangle_826" data-name="Rectangle 826" transform="translate(35.914 63.8)" fill="#ffb1a5" d="M0 0h22.848v29.587H0z"/><path id="Path_5289" data-name="Path 5289" d="M248.211 196.872s6.36 12.693 14.185 14.675a11.012 11.012 0 006.338-.367c2.945-1.044 6.68-5.434 7.314-10.292l.3-2.776s-13.928 7.581-28.137-1.24z" transform="translate(-215.631 -134.917)" fill="#282828"/><path id="Path_5290" data-name="Path 5290" d="M287.362 165.3a111.487 111.487 0 01-2.827 24.785c-1.383 6-5.273 10.2-10.771 13.577l-1 .614a18.9 18.9 0 01-19.24.214c-5.957-3.473-10.128-8.052-11.412-14.494a163.072 163.072 0 01-2.589-24.7s-2.223-25.274 23.577-24.783 24.262 24.787 24.262 24.787z" transform="translate(-215.917 -136.757)" fill="#ffb1a5"/><g id="Group_3028" data-name="Group 3028" transform="translate(29.989 28.74)"><path id="Path_5291" data-name="Path 5291" d="M15.734 15.594v2.078a1.585 1.585 0 00.113.587 1.561 1.561 0 001.858.856l1.6-.424" fill="none" stroke="#282828" stroke-linecap="round" stroke-linejoin="round" stroke-width="1.23"/><path id="Path_5292" data-name="Path 5292" d="M266.144 166.6l13.726 3.249s-.624-3.528-6.239-4.809-7.487 1.56-7.487 1.56z" transform="translate(-245.034 -164.707)" fill="#282828"/><path id="Path_5293" data-name="Path 5293" d="M259.6 166.6l-13.9 3.249s.632-3.528 6.319-4.809 7.581 1.56 7.581 1.56z" transform="translate(-245.702 -164.707)" fill="#282828"/><path id="Path_5294" data-name="Path 5294" d="M254.479 174.858a2.162 2.162 0 11-2.162-2.15 2.156 2.156 0 012.162 2.15z" transform="translate(-245.557 -164.446)" fill="#282828"/><path id="Path_5295" data-name="Path 5295" d="M274.331 174.858a2.162 2.162 0 11-2.162-2.15 2.156 2.156 0 012.162 2.15z" transform="translate(-244.908 -164.446)" fill="#282828"/><path id="Path_5296" data-name="Path 5296" d="M252.959 186.7h18.979s-1.339 5.215-9.946 5.215a10.066 10.066 0 01-9.033-5.215z" transform="translate(-245.465 -163.989)" fill="#fff"/></g><path id="Path_5297" data-name="Path 5297" d="M239.914 173.517s10.315-13.946 7.936-28.074a20.328 20.328 0 00-9.65 13.8c-1.994 9.943 1.714 14.274 1.714 14.274z" transform="translate(-215.977 -136.596)" fill="#282828"/><path id="Path_5298" data-name="Path 5298" d="M286.179 173.082s-11.983-14.429-9.6-28.557a23.594 23.594 0 0110.3 14.746c1.995 9.945-.7 13.811-.7 13.811z" transform="translate(-214.715 -136.626)" fill="#282828"/><path id="Path_5299" data-name="Path 5299" d="M240.679 151.2s11.836 15.909 48.075 13.427c0 0-4.14-22.687-21.7-24.953-.002.001-20.28-2.421-26.375 11.526z" transform="translate(-215.877 -136.79)" fill="#282828"/></g><g id="Group_3033" data-name="Group 3033" transform="translate(0 83.748)"><g id="Group_3031" data-name="Group 3031" transform="translate(0 46.445)"><g id="Group_3030" data-name="Group 3030" fill="#ffb1a5"><path id="Path_5300" data-name="Path 5300" d="M209 394.471c-.527.829 30.162-133.528 21.051-131.5-.831.186-16.789 1.668-19.16 6.489-6.875 13.979-11.806 123.989-11.806 123.989z" transform="translate(-198.495 -262.952)"/><path id="Path_5301" data-name="Path 5301" d="M199.106 389.414s-4.946 22.95 13.753 25.459a2.628 2.628 0 002.828-1.737l.054-.156a2.625 2.625 0 00-1.455-3.247c-3.048-1.363-7.777-4.808-5.431-12.629 0 0 2.7-.331 4.195 4.711a2.168 2.168 0 003.047 1.339 2.168 2.168 0 001.173-2.217c-.448-3.532-2.225-12.032-9.041-14.314z" transform="translate(-198.514 -258.913)"/></g><path id="Path_5302" data-name="Path 5302" d="M205.181 301.147s17.682 24.9 17.775 24.42 6.184-34.961 6.184-34.961l-21.457-9.295z" transform="translate(-198.296 -262.352)" fill="#f3978e"/></g><g id="Group_3032" data-name="Group 3032" transform="translate(4.191)"><path id="Path_5303" data-name="Path 5303" d="M254.4 222.6c.755 0-43.7.792-51.824 56.924l25.548 3.914 5.151 42.377h71.27l14.149-78.3s-10.059-16.963-39.378-25.274z" transform="translate(-202.572 -217.836)" fill="#00857b"/><path id="Path_5304" data-name="Path 5304" d="M231.716 229.529s6.283 8.34 32.024 8.34c25.5 0 32.023-8.777 32.023-8.777s-15.033-8.4-32.478-11.117a115.565 115.565 0 00-31.569 11.554z" transform="translate(-201.62 -217.976)" fill="#ffb1a5"/></g></g></g><g id="Group_3057" data-name="Group 3057"><g id="Group_3036" data-name="Group 3036" transform="translate(146.055 305.577)"><g id="Group_3035" data-name="Group 3035" fill="#005683"><path id="Path_5305" data-name="Path 5305" d="M316.414 401.367l.061 111.945h55.38l4.256-111.945z" transform="translate(-316.414 -401.367)"/><path id="Path_5306" data-name="Path 5306" d="M434.744 401.367l-.061 111.945H379.3l-4.256-111.945z" transform="translate(-314.499 -401.367)"/><path id="Rectangle_827" data-name="Rectangle 827" transform="translate(32.738)" d="M0 0h57.26v38.891H0z"/></g><path id="Line_47" data-name="Line 47" fill="none" stroke="#282828" stroke-linecap="round" stroke-linejoin="round" stroke-width="1.397" d="M40.736 38.892H80.23"/></g><g id="Group_3047" data-name="Group 3047" transform="translate(0 105.229)"><g id="Group_3038" data-name="Group 3038" transform="translate(235.359 15.318)"><g id="Group_3037" data-name="Group 3037" transform="translate(28.76 87.337)"><path id="Path_5307" data-name="Path 5307" d="M467.91 306.763c3.434 37.934-.188 65.573.814 135.373l-33.054 1.384-4.925-130.654z" transform="translate(-430.745 -306.763)" fill="#ffb1a5"/><path id="Path_5308" data-name="Path 5308" d="M434.693 336.036s20.469-1.874 34.463-11.105l-.369-8.124-34.107 4.645z" transform="translate(-430.616 -306.435)" fill="#f3978e"/></g><path id="Path_5309" data-name="Path 5309" d="M402.894 222.188s65.015 16.351 76.8 98.875c0 0-31.82 13.8-63.709 7.862l7.174-27.6z" transform="translate(-402.894 -222.188)" fill="var(--cms-tertiary-color) /** CMS_TERTIARY_COLOR **/"/></g><g id="Group_3045" data-name="Group 3045"><g id="Group_3042" data-name="Group 3042"><path id="Path_5310" data-name="Path 5310" d="M215.457 255.417l48.409 57.169-14.814 41.714s-36.794-51.155-53.326-90.693z" transform="translate(-174.3 -205.785)" fill="#ffb1a5"/><g id="Group_3041" data-name="Group 3041"><g id="Group_3040" data-name="Group 3040"><g id="Group_3039" data-name="Group 3039" fill="#ffb1a5"><path id="Path_5311" data-name="Path 5311" d="M217.485 258.48s-17 9.6-21.322 6.13c-7.556-6.071-13.8-28.294-13.8-28.294s31.787-11.984 31.489-11.516 3.633 33.68 3.633 33.68z" transform="translate(-174.736 -206.785)"/><path id="Path_5312" data-name="Path 5312" d="M216.556 258.4c-.3-1.712 6.3-20.173 8.568-27.1a3.054 3.054 0 00-2.417-3.848 3.526 3.526 0 00-3.932 1.612l-7.975 13.628z" transform="translate(-173.808 -206.701)"/><path id="Path_5313" data-name="Path 5313" d="M216.186 239.038l-5.474-27.238a3.428 3.428 0 00-3.962-2.718 2.952 2.952 0 00-2.424 3.275l2.385 20.279z" transform="translate(-174.02 -207.3)"/><path id="Path_5314" data-name="Path 5314" d="M205.7 229.047l-7.432-19.447a3.411 3.411 0 00-4.224-2.08 2.94 2.94 0 00-1.943 3.488l5.516 22.473z" transform="translate(-174.421 -207.354)"/><path id="Path_5315" data-name="Path 5315" d="M198.042 234.585l-9.405-19.109a3.739 3.739 0 00-4.774-1.831 3.257 3.257 0 00-1.68 4.3l7.5 18.041z" transform="translate(-174.751 -207.158)"/><path id="Path_5316" data-name="Path 5316" d="M182.6 236.442l-7.38-11.707a2.643 2.643 0 011.29-3.532 3.021 3.021 0 013.689 1.073l9.7 13.464z" transform="translate(-174.978 -206.91)"/></g></g><path id="Path_5317" data-name="Path 5317" d="M40.679 29.692S29.596 28.529 28.456 43.3" fill="none" stroke="#282828" stroke-linecap="round" stroke-linejoin="round" stroke-width="1.532"/></g></g><g id="Group_3044" data-name="Group 3044" transform="translate(64.935 13.888)"><g id="Group_3043" data-name="Group 3043" transform="translate(0 33.333)"><path id="Path_5318" data-name="Path 5318" d="M237.859 334.868s9.1 31.509 27.248 27.32 46.421-42.94 46.421-42.94l-6.328-66.166-50.923 62.675z" transform="translate(-237.859 -253.082)" fill="#ffb1a5"/><path id="Path_5319" data-name="Path 5319" d="M269.051 295.1s17.193 25.933 31.86 35.077l9.6-12.117-37.032-28.647z" transform="translate(-236.84 -251.896)" fill="#f3978e"/></g><path id="Path_5320" data-name="Path 5320" d="M344.34 220.8s-50.476 11.377-77.375 70.041c0 0 16.252 24.488 42.307 35.373l17.444-21.37z" transform="translate(-236.908 -220.803)" fill="var(--cms-tertiary-color) /** CMS_TERTIARY_COLOR **/"/></g></g><g id="Group_3046" data-name="Group 3046" transform="translate(139.477 9.324)"><path id="Path_5321" data-name="Path 5321" d="M342.909 220.766a126.409 126.409 0 00-32.109 23.527l3.89 171.483h124.251l-.4-170.6s-15.662-15.328-32.637-22.8c-14.42-6.345-48.978-8.8-62.995-1.61z" transform="translate(-310.019 -216.383)" fill="var(--cms-tertiary-color) /** CMS_TERTIARY_COLOR **/"/><path id="Rectangle_828" data-name="Rectangle 828" d="M74.403 53.375h34.566v17.83a16.736 16.736 0 01-16.736 16.736h-1.094a16.736 16.736 0 01-16.736-16.736v-17.83h0z" fill="var(--cms-tertiary-color) /** CMS_TERTIARY_COLOR **/" stroke="#282828" stroke-linecap="round" stroke-linejoin="round" stroke-width="1.397"/><path id="Line_48" data-name="Line 48" fill="none" stroke="#282828" stroke-linecap="round" stroke-linejoin="round" stroke-width="1.397" d="M128.719 113.367l1.612-56.097"/><path id="Line_49" data-name="Line 49" fill="none" stroke="#282828" stroke-linecap="round" stroke-linejoin="round" stroke-width="1.397" d="M2.685 104.018L0 55.391"/></g></g><g id="Group_3056" data-name="Group 3056" transform="translate(162.56)"><path id="Path_5322" data-name="Path 5322" d="M343.485 161.407l-5.18-25.625c-.291-2.087-1.1-5.308-.109-8.335 1.641-5.007 7.671-14.623 17.975-10.22l2.228 10.145s-10.7 2.16-15 16.161z" transform="translate(-332.223 -105.105)" fill="#282828"/><path id="Path_5323" data-name="Path 5323" d="M355.341 122.313c-.187 3.366-3.159 18.1-13.607 23.466-.001 0-9.152-19.627 13.607-23.466z" transform="translate(-332.152 -104.903)" fill="#282828"/><path id="Path_5324" data-name="Path 5324" d="M391.992 217.434v-43.513H351.88v43.513l-11.941 5.443s2.8 18.034 32.418 18.434 32.593-17.547 32.593-17.547z" transform="translate(-332.151 -103.217)" fill="#ffb1a5"/><path id="Path_5325" data-name="Path 5325" d="M355.588 117.574s7.362-19.421 30.063-9.1c13.739 6.249 17.588 14.628 19.226 20.563a23.882 23.882 0 01.612 6.925L400 161.754l-21.438-35.68-20.744 1.645z" transform="translate(-331.64 -105.453)" fill="#282828"/><g id="Group_3050" data-name="Group 3050" transform="translate(65.977 53.53)"><path id="Path_5326" data-name="Path 5326" d="M398.669 160.062s2.7-4.3 8.282-2.186 3.055 15.662-5.312 17.388a6.617 6.617 0 01-5.351-1.4s2.057-10.005 2.381-13.802z" transform="translate(-396.288 -157.291)" fill="#f3978e"/><g id="Group_3049" data-name="Group 3049" transform="translate(1.569 5.212)"><g id="Group_3048" data-name="Group 3048"><path id="Path_5327" data-name="Path 5327" d="M7.993.152S3.32-1.407.004 5.473" fill="none" stroke="#282828" stroke-linecap="round" stroke-linejoin="round" stroke-width="1.397"/></g></g></g><g id="Group_3053" data-name="Group 3053" transform="translate(0 53.53)"><path id="Path_5328" data-name="Path 5328" d="M343.659 160.062s-2.7-4.3-8.282-2.186-3.055 15.662 5.312 17.388a6.618 6.618 0 005.351-1.4s-2.058-10.005-2.381-13.802z" transform="translate(-332.397 -157.291)" fill="#f3978e"/><g id="Group_3052" data-name="Group 3052" transform="translate(4.086 5.212)"><g id="Group_3051" data-name="Group 3051"><path id="Path_5329" data-name="Path 5329" d="M0 .152s4.673-1.559 7.989 5.321" fill="none" stroke="#282828" stroke-linecap="round" stroke-linejoin="round" stroke-width="1.397"/></g></g></g><path id="Path_5330" data-name="Path 5330" d="M400.979 148.444c0 8.166-.8 25.251-5.819 35.391-4.714 9.521-12.51 14.645-22.731 14.95s-17.834-3.634-23.936-15.991-5.811-34.2-5.811-34.2 0-29.172 28.832-29.172c30.366.002 29.465 29.022 29.465 29.022z" transform="translate(-332.061 -104.997)" fill="#ffb1a5"/><path id="Path_5331" data-name="Path 5331" d="M351.794 186.688s3.359 17.044 18.192 19c17.072 2.254 21.619-18.569 21.619-18.569s-7.544 9.453-19.474 9.467a26.1 26.1 0 01-20.337-9.898z" transform="translate(-331.764 -102.8)" fill="#282828"/><g id="Group_3055" data-name="Group 3055" transform="translate(10.974 36.621)"><path id="Path_5332" data-name="Path 5332" d="M26.738 18.937v6.752a2.207 2.207 0 00.158.823 2.173 2.173 0 002.591 1.2l2.239-.6" fill="none" stroke="#282828" stroke-linecap="round" stroke-linejoin="round" stroke-width="1.397"/><path id="Path_5333" data-name="Path 5333" d="M360.838 156.215a2.625 2.625 0 11-2.625-2.625 2.625 2.625 0 012.625 2.625z" transform="translate(-342.614 -140.502)" fill="#282828"/><path id="Path_5334" data-name="Path 5334" d="M384.667 156.215a2.624 2.624 0 11-2.624-2.625 2.624 2.624 0 012.624 2.625z" transform="translate(-341.836 -140.502)" fill="#282828"/><path id="Path_5335" data-name="Path 5335" d="M375.454 143.572l17.646 4.558s-.8-4.95-8.022-6.748-9.624 2.19-9.624 2.19z" transform="translate(-341.965 -140.916)" fill="#282828"/><path id="Path_5336" data-name="Path 5336" d="M365.393 143.572l-17.647 4.558s.8-4.95 8.022-6.748 9.625 2.19 9.625 2.19z" transform="translate(-342.87 -140.916)" fill="#282828"/><path id="Path_5337" data-name="Path 5337" d="M19.013 32.491s2.6 2 9.45 2a23.929 23.929 0 0010.114-2" fill="none" stroke="#282828" stroke-linecap="round" stroke-linejoin="round" stroke-width="1.397"/><g id="Group_3054" data-name="Group 3054" transform="translate(0 5.327)" fill="none" stroke="#fff" stroke-miterlimit="10" stroke-width="1.951"><circle id="Ellipse_211" data-name="Ellipse 211" cx="11.153" cy="11.153" r="11.153" transform="translate(3.74)"/><circle id="Ellipse_212" data-name="Ellipse 212" cx="11.153" cy="11.153" r="11.153" transform="translate(31.138)"/><path id="Path_5338" data-name="Path 5338" d="M368.246 156.91s2.642-2.466 5.093 0" transform="translate(-342.201 -145.756)"/><path id="Line_50" data-name="Line 50" transform="translate(0 11.058)" d="M3.74.095L0 0"/><path id="Line_51" data-name="Line 51" transform="translate(53.444 11.085)" d="M0 .068L4.175 0"/></g></g><path id="Path_5339" data-name="Path 5339" d="M351.794 123.163s5.356 15.216 29.525 14.749c16.422-.317 20.346 11.567 20.346 11.567s-2.858-26.567-3.609-26.316-24.99-6.468-24.99-6.468z" transform="translate(-331.764 -105.086)" fill="#282828"/></g></g></g></g></g></svg>