<svg xmlns="http://www.w3.org/2000/svg" width="160" height="48"><defs><clipPath id="clip-path"><path id="Rectangle_473" data-name="Rectangle 473" transform="translate(29.167 1)" fill="none" d="M0 0h160v48H0z"/></clipPath></defs><g id="logo-white" transform="translate(-29.167 -1)" clip-path="url(#clip-path)"><g id="Group_2001" data-name="Group 2001" transform="translate(29.167 1)"><g id="Group_1997" data-name="Group 1997" transform="translate(62.311 2.66)" fill="#fff"><path id="Path_22" data-name="Path 22" d="M-231.241-508.6a2.9 2.9 0 00-1.117-1.04 3.283 3.283 0 00-1.773-.309 2.259 2.259 0 00-1.271.656 1.949 1.949 0 00-.578 1.271 1.605 1.605 0 00.154.963 2.66 2.66 0 00.693.886 4.579 4.579 0 00.848.462c.424.154.77.27 1.194.386a12.94 12.94 0 011.619.5 5.935 5.935 0 011.811 1.079 6.367 6.367 0 011.965 2.467 6.091 6.091 0 01.539 3.044 6.6 6.6 0 01-1.773 3.931 6.176 6.176 0 01-3.853 1.926 7.426 7.426 0 01-4.239-.655 6.566 6.566 0 01-3.083-2.89 7.508 7.508 0 01-.5-1.155 7.985 7.985 0 01-.27-1.272l3.892-.54a2.889 2.889 0 00.154.578 2.113 2.113 0 00.193.5 2.871 2.871 0 001.31 1.233 3.465 3.465 0 002.042.309 2.7 2.7 0 001.5-.771 2.493 2.493 0 00.694-1.5 2.62 2.62 0 00-.193-1.117 2.047 2.047 0 00-.848-1 2.021 2.021 0 00-.809-.5 14.533 14.533 0 00-1.195-.385 9.881 9.881 0 01-1.618-.5 7.016 7.016 0 01-1.849-1.079 6.433 6.433 0 01-1.811-2.312 5.946 5.946 0 01-.54-2.89 6.306 6.306 0 011.7-3.7 6.146 6.146 0 013.622-1.811 7.044 7.044 0 013.968.617 6.571 6.571 0 012.89 2.736zm0 0l3.468-1.888z" transform="translate(240.873 514.57)"/><path id="Path_23" data-name="Path 23" d="M-205.211-497.134h-7.63l-2.312 4.932h-4.316l8.515-18.033 1.773-3.738 1.811 3.7 8.9 18.072h-4.315zm-5.858-3.7h4.007l-2.042-4.2zm1.965-4.2l-1.965 4.2z" transform="translate(234.688 514.59)"/><path id="Path_24" data-name="Path 24" d="M-196.241-513.595l6.011 12.485 5.934-12.485h4.315l-8.477 17.764-1.773 3.738-1.811-3.738-8.515-17.764zm-4.315 0z" transform="translate(229.223 514.481)"/><path id="Path_25" data-name="Path 25" d="M-166.712-513.865v21.694h-3.931v-21.694zm-3.931 0z" transform="translate(220.579 514.559)"/><path id="Path_26" data-name="Path 26" d="M-147.73-513.811v21.579l-3.429-3.584-8.13-8.361v11.906h-3.931v-21.54l3.429 3.584 8.131 8.362v-11.945zm-3.93 0z" transform="translate(218.435 514.543)"/><path id="Path_27" data-name="Path 27" d="M-128.34-503.512h11.946v.038a11.066 11.066 0 01-3.16 8.092 11.673 11.673 0 01-8.323 3.43 11.01 11.01 0 01-8.092-3.353 11.386 11.386 0 01-3.353-8.092 11.383 11.383 0 013.353-8.092 11.136 11.136 0 018.092-3.353 11.138 11.138 0 015.2 1.233 10.915 10.915 0 014.085 3.507l-3.2 2.312a7.621 7.621 0 00-2.659-2.273 7.177 7.177 0 00-3.429-.848 7.368 7.368 0 00-5.279 2.235 7.489 7.489 0 00-2.2 5.279 7.512 7.512 0 002.2 5.318 7.492 7.492 0 005.279 2.2 7.8 7.8 0 005.51-2.273 8.784 8.784 0 001.079-1.349l-7.052-.078zm0 0z" transform="translate(211.529 514.841)"/><path id="Path_28" data-name="Path 28" d="M-237.073-470.705v3.331h-1.386v-8.583h2.917a3.146 3.146 0 012.231.7 2.531 2.531 0 01.747 1.933 2.465 2.465 0 01-.766 1.915 3.173 3.173 0 01-2.213.7zm3.1-2.614a1.455 1.455 0 00-.407-1.113 1.868 1.868 0 00-1.307-.383h-1.386v2.979h1.386q1.714 0 1.714-1.483z" transform="translate(240.175 503.605)"/><path id="Path_29" data-name="Path 29" d="M-221.553-467.374l-2.14-3.429h-.985v3.429h-1.387v-8.583h3.028a3.132 3.132 0 012.231.717 2.486 2.486 0 01.76 1.9 2.418 2.418 0 01-.565 1.653 2.7 2.7 0 01-1.635.827l2.249 3.489zm-3.124-4.413h1.532q1.678 0 1.677-1.483a1.464 1.464 0 00-.407-1.1 1.77 1.77 0 00-1.271-.4h-1.532z" transform="translate(236.594 503.605)"/><path id="Path_30" data-name="Path 30" d="M-207.426-475.552a4 4 0 011.52 1.562 4.612 4.612 0 01.553 2.267 4.612 4.612 0 01-.553 2.268 4.043 4.043 0 01-1.52 1.568 4.2 4.2 0 01-2.158.566 4.221 4.221 0 01-2.17-.566 4.088 4.088 0 01-1.526-1.568 4.577 4.577 0 01-.559-2.268 4.577 4.577 0 01.559-2.267 4.049 4.049 0 011.526-1.562 4.265 4.265 0 012.17-.559 4.239 4.239 0 012.158.559zm-3.629 1.107a2.566 2.566 0 00-1 1.082 3.568 3.568 0 00-.359 1.641 3.565 3.565 0 00.359 1.641 2.567 2.567 0 001 1.082 2.862 2.862 0 001.471.377 2.8 2.8 0 001.453-.377 2.577 2.577 0 001-1.082 3.575 3.575 0 00.359-1.641 3.577 3.577 0 00-.359-1.641 2.575 2.575 0 00-1-1.082 2.8 2.8 0 00-1.453-.378 2.856 2.856 0 00-1.471.378z" transform="translate(233.061 503.65)"/><path id="Path_31" data-name="Path 31" d="M-188.646-475.769v8.449h-1.4v-6.334l-2.444 6.334h-1.21l-2.455-6.334v6.334h-1.386v-8.449h1.677l2.8 6.747 2.747-6.747z" transform="translate(228.353 503.551)"/><path id="Path_32" data-name="Path 32" d="M-174.275-475.552a3.994 3.994 0 011.52 1.562 4.612 4.612 0 01.554 2.267 4.612 4.612 0 01-.554 2.268 4.033 4.033 0 01-1.52 1.568 4.193 4.193 0 01-2.157.566 4.218 4.218 0 01-2.17-.566 4.079 4.079 0 01-1.526-1.568 4.569 4.569 0 01-.559-2.268 4.569 4.569 0 01.559-2.267 4.039 4.039 0 011.526-1.562 4.262 4.262 0 012.17-.559 4.237 4.237 0 012.157.559zm-3.628 1.107a2.571 2.571 0 00-1 1.082 3.577 3.577 0 00-.358 1.641 3.574 3.574 0 00.358 1.641 2.573 2.573 0 001 1.082 2.859 2.859 0 001.471.377 2.808 2.808 0 001.453-.377 2.581 2.581 0 001-1.082 3.583 3.583 0 00.358-1.641 3.586 3.586 0 00-.358-1.641 2.58 2.58 0 00-1-1.082 2.8 2.8 0 00-1.453-.378 2.852 2.852 0 00-1.468.378z" transform="translate(223.482 503.65)"/><path id="Path_33" data-name="Path 33" d="M-151.657-475.274a3.92 3.92 0 011.41 2.176h-1.47a2.621 2.621 0 00-.967-1.234 2.8 2.8 0 00-1.623-.456 2.52 2.52 0 00-1.368.378 2.585 2.585 0 00-.948 1.075 3.642 3.642 0 00-.347 1.635 3.611 3.611 0 00.347 1.623 2.582 2.582 0 00.948 1.076 2.526 2.526 0 001.368.377 2.8 2.8 0 001.623-.456 2.63 2.63 0 00.967-1.222h1.47a3.893 3.893 0 01-1.41 2.17 4.212 4.212 0 01-2.626.8 4.151 4.151 0 01-2.152-.553 3.751 3.751 0 01-1.446-1.544 4.877 4.877 0 01-.511-2.268 4.877 4.877 0 01.511-2.268 3.792 3.792 0 011.446-1.549 4.121 4.121 0 012.152-.56 4.184 4.184 0 012.626.8z" transform="translate(217.039 503.64)"/><path id="Path_34" data-name="Path 34" d="M-136.575-475.552a4 4 0 011.519 1.562 4.619 4.619 0 01.553 2.267 4.619 4.619 0 01-.553 2.268 4.043 4.043 0 01-1.519 1.568 4.2 4.2 0 01-2.158.566 4.218 4.218 0 01-2.17-.566 4.084 4.084 0 01-1.526-1.568 4.577 4.577 0 01-.56-2.268 4.577 4.577 0 01.56-2.267 4.044 4.044 0 011.526-1.562 4.262 4.262 0 012.17-.559 4.241 4.241 0 012.158.559zm-3.629 1.107a2.571 2.571 0 00-1 1.082 3.577 3.577 0 00-.358 1.641 3.574 3.574 0 00.358 1.641 2.573 2.573 0 001 1.082 2.862 2.862 0 001.471.377 2.808 2.808 0 001.453-.377 2.582 2.582 0 001-1.082 3.575 3.575 0 00.358-1.641 3.577 3.577 0 00-.358-1.641 2.58 2.58 0 00-1-1.082 2.8 2.8 0 00-1.453-.378 2.856 2.856 0 00-1.467.378z" transform="translate(212.589 503.65)"/><path id="Path_35" data-name="Path 35" d="M-119.856-469.41a3.661 3.661 0 01-1.544 1.5 5.142 5.142 0 01-2.425.535h-2.869v-8.583h2.869a5.185 5.185 0 012.425.528 3.634 3.634 0 011.544 1.49 4.622 4.622 0 01.528 2.261 4.658 4.658 0 01-.528 2.269zm-1.708-.018a2.988 2.988 0 00.826-2.249 2.99 2.99 0 00-.826-2.249 3.268 3.268 0 00-2.371-.8h-1.374v6.1h1.374a3.265 3.265 0 002.371-.803z" transform="translate(207.88 503.605)"/><path id="Path_36" data-name="Path 36" d="M-110.588-474.839v2.6h3.161v1.069h-3.161v2.662h3.526v1.131h-4.912v-8.583h4.912v1.118z" transform="translate(203.627 503.605)"/></g><g id="Group_2000" data-name="Group 2000"><path id="Path_37" data-name="Path 37" d="M-275.6-476.928h-51.942a.968.968 0 01-.967-.967v-39.719a.968.968 0 01.967-.967h35.942l.007.014z" transform="translate(328.506 518.582)" fill="#800200"/><g id="Group_1999" data-name="Group 1999" transform="translate(10.299 5.652)"><g id="Group_1998" data-name="Group 1998"><path id="Path_38" data-name="Path 38" d="M-300.429-503.145a4.1 4.1 0 00-1.577-1.468 4.625 4.625 0 00-2.5-.434 3.178 3.178 0 00-1.794.924 2.76 2.76 0 00-.816 1.795 2.263 2.263 0 00.218 1.359 3.759 3.759 0 00.978 1.251 6.542 6.542 0 001.2.653c.6.217 1.086.38 1.685.543a18.339 18.339 0 012.283.707 8.375 8.375 0 012.555 1.522 8.963 8.963 0 012.772 3.48 8.593 8.593 0 01.762 4.295 9.3 9.3 0 01-2.5 5.545 8.711 8.711 0 01-5.437 2.718 10.473 10.473 0 01-5.981-.924 9.259 9.259 0 01-4.349-4.077 10.566 10.566 0 01-.707-1.631 11.291 11.291 0 01-.381-1.794l5.491-.762a4.137 4.137 0 00.218.816 3.01 3.01 0 00.272.707 4.056 4.056 0 001.849 1.74 4.9 4.9 0 002.881.435 3.794 3.794 0 002.12-1.088 3.512 3.512 0 00.979-2.12 3.715 3.715 0 00-.272-1.576 2.9 2.9 0 00-1.2-1.414 2.848 2.848 0 00-1.142-.707c-.6-.218-1.087-.38-1.685-.543a14.01 14.01 0 01-2.283-.707 9.88 9.88 0 01-2.61-1.522 9.072 9.072 0 01-2.555-3.262 8.39 8.39 0 01-.762-4.078 8.9 8.9 0 012.393-5.219 8.675 8.675 0 015.11-2.555 9.945 9.945 0 015.6.87 9.279 9.279 0 014.078 3.86zm0 0l4.893-2.664z" transform="translate(314.021 510.633)" fill="#fff"/></g></g><path id="Path_39" data-name="Path 39" d="M-266.706-476.267h-11.1l-18.866-12.16a2.231 2.231 0 01-.693-3.035l15.238-24.832z" transform="translate(319.603 517.921)" fill="#231f20" opacity=".15"/><path id="Path_40" data-name="Path 40" d="M-264.374-470.922l-9.293-6.008-23.013-14.883a2.079 2.079 0 01-.645-2.831l14.642-23.939 16 41.652z" transform="translate(319.584 518.582)" fill="#fcb912"/></g></g></g></svg>