<svg xmlns="http://www.w3.org/2000/svg" width="114.962" height="105.975"><path id="Path_4958" data-name="Path 4958" d="M82.684 2.335C69.048 2.4 63.97 6.66 63.2 20.4c-.674 12.1-1.325 24.105-4.9 35.765C55.523 65.2 52.951 74.314 50 83.3c-1.954 5.953.629 8.278 6.088 9.054 7.548 1.056 12.5-2.775 16.467-8.548 12.3-17.882 20.713-37.8 28.778-57.725C106.98 12.13 98.545 2.245 82.684 2.335zM32.6.01C20.7-.237 15.49 4.121 15.063 16.219c-.438 12.772-3 25.06-6.537 37.225-2.651 9.1-5.706 18.085-8 27.273-1.986 7.964 1.71 11.288 9.874 9.794 6.335-1.168 8.8-6.391 11.424-11.154C31.9 61.116 39.9 41.9 47.683 22.61 53.209 8.962 47.256.313 32.6.01z" transform="rotate(-8 102.586 7.173)" fill="var(--cms-primary-color) /** CMS_PRIMARY_COLOR **/"/></svg>