<svg xmlns="http://www.w3.org/2000/svg" width="33.523" height="28.939"><g id="responsive-logo"><path id="Path_16" data-name="Path 16" d="M-296.38-493.29h-31.539a.588.588 0 01-.587-.587v-24.117a.588.588 0 01.587-.587h21.825v.009z" transform="translate(328.506 518.581)" fill="#800200"/><g id="Group_601" data-name="Group 601" transform="translate(6.254 3.432)"><g id="Group_600" data-name="Group 600"><path id="Path_17" data-name="Path 17" d="M-305.768-506.086a2.489 2.489 0 00-.958-.891 2.808 2.808 0 00-1.518-.264 1.93 1.93 0 00-1.089.561 1.676 1.676 0 00-.5 1.09 1.374 1.374 0 00.132.825 2.281 2.281 0 00.594.759 3.969 3.969 0 00.727.4c.363.132.66.231 1.023.33a11.15 11.15 0 011.386.429 5.087 5.087 0 011.552.924 5.443 5.443 0 011.683 2.113 5.218 5.218 0 01.462 2.608 5.65 5.65 0 01-1.518 3.367 5.29 5.29 0 01-3.3 1.651 6.359 6.359 0 01-3.632-.561 5.622 5.622 0 01-2.641-2.476 6.418 6.418 0 01-.429-.99 6.855 6.855 0 01-.231-1.089l3.334-.462a2.512 2.512 0 00.132.5 1.826 1.826 0 00.165.429 2.463 2.463 0 001.122 1.056 2.973 2.973 0 001.749.264 2.3 2.3 0 001.287-.661 2.132 2.132 0 00.594-1.287 2.255 2.255 0 00-.165-.957 1.763 1.763 0 00-.727-.858 1.729 1.729 0 00-.693-.429c-.363-.132-.66-.231-1.023-.33a8.51 8.51 0 01-1.386-.43 6 6 0 01-1.584-.924 5.509 5.509 0 01-1.552-1.98 5.094 5.094 0 01-.462-2.476 5.405 5.405 0 011.453-3.169 5.267 5.267 0 013.1-1.552 6.038 6.038 0 013.4.528 5.635 5.635 0 012.481 2.338zm0 0l2.971-1.618z" transform="translate(314.021 510.633)" fill="#fff"/></g></g><path id="Path_18" data-name="Path 18" d="M-278.878-491.99h-6.742l-11.455-7.383a1.355 1.355 0 01-.421-1.843l9.253-15.078z" transform="translate(310.997 517.282)" fill="#231f20" opacity=".15"/><path id="Path_19" data-name="Path 19" d="M-277.438-489.643l-5.643-3.648-13.973-9.037a1.262 1.262 0 01-.392-1.719l8.89-14.535 9.714 25.291z" transform="translate(310.961 518.582)" fill="#fcb912"/></g></svg>