<svg id="Layer_2" data-name="Layer 2" xmlns="http://www.w3.org/2000/svg" viewBox="0 0 398 14"><defs><style>.cls-1{fill:#e6fcf4}</style></defs><g id="_3Column" data-name="3Column"><g id="_3ColumnBottom" data-name="3ColumnBottom"><path class="cls-1" d="M17.17 12c-.11.65-.17 1.31-.17 1.99s23.99.01 23.99.01c0-.69-.06-1.35-.17-2-.95-5.67-5.89-10-11.83-10S18.12 6.33 17.17 12zM51.17 12c-.11.65-.17 1.31-.17 1.99s23.99.01 23.99.01c0-.69-.06-1.35-.17-2-.95-5.67-5.89-10-11.83-10S52.12 6.33 51.17 12zM85.17 12c-.11.65-.17 1.31-.17 1.99s23.99.01 23.99.01c0-.69-.06-1.35-.17-2-.95-5.67-5.89-10-11.83-10S86.12 6.33 85.17 12zM119.17 12c-.11.65-.17 1.31-.17 1.99s23.99.01 23.99.01c0-.69-.06-1.35-.17-2-.95-5.67-5.89-10-11.83-10s-10.87 4.33-11.82 10zM153.17 12c-.11.65-.17 1.31-.17 1.99s23.99.01 23.99.01c0-.69-.06-1.35-.17-2-.95-5.67-5.89-10-11.83-10s-10.87 4.33-11.82 10zM187.17 12c-.11.65-.17 1.31-.17 1.99s23.99.01 23.99.01c0-.69-.06-1.35-.17-2-.95-5.67-5.89-10-11.83-10s-10.87 4.33-11.82 10zM221.17 12c-.11.65-.17 1.31-.17 1.99s23.99.01 23.99.01c0-.69-.06-1.35-.17-2-.95-5.67-5.89-10-11.83-10s-10.87 4.33-11.82 10zM255.17 12c-.11.65-.17 1.31-.17 1.99s23.99.01 23.99.01c0-.69-.06-1.35-.17-2-.95-5.67-5.89-10-11.83-10s-10.87 4.33-11.82 10zM289.17 12c-.11.65-.17 1.31-.17 1.99s23.99.01 23.99.01c0-.69-.06-1.35-.17-2-.95-5.67-5.89-10-11.83-10s-10.87 4.33-11.82 10zM323.17 12c-.11.65-.17 1.31-.17 1.99s23.99.01 23.99.01c0-.69-.06-1.35-.17-2-.95-5.67-5.89-10-11.83-10s-10.87 4.33-11.82 10zM380.99 14c0-.69-.06-1.35-.17-2-.95-5.67-5.89-10-11.83-10s-10.87 4.33-11.82 10c-.11.65-.17 1.31-.17 1.99s23.99.01 23.99.01z"/><path id="_3ColumnTop" data-name="3ColumnTop" d="M382.99 14h-2c0-.69-.06-1.35-.17-2-.95-5.67-5.89-10-11.83-10s-10.87 4.33-11.82 10c-.11.65-.17 1.31-.17 1.99s-2 .01-2 .01h-8.01c0-.69-.06-1.35-.17-2-.95-5.67-5.89-10-11.83-10s-10.87 4.33-11.82 10c-.11.65-.17 1.31-.17 1.99s-2 .01-2 .01h-8.01c0-.69-.06-1.35-.17-2-.95-5.67-5.89-10-11.83-10s-10.87 4.33-11.82 10c-.11.65-.17 1.31-.17 1.99s-2 .01-2 .01h-8.01c0-.69-.06-1.35-.17-2-.95-5.67-5.89-10-11.83-10s-10.87 4.33-11.82 10c-.11.65-.17 1.31-.17 1.99s-2 .01-2 .01h-8.01c0-.69-.06-1.35-.17-2-.95-5.67-5.89-10-11.83-10s-10.87 4.33-11.82 10c-.11.65-.17 1.31-.17 1.99s-2 .01-2 .01h-8.01c0-.69-.06-1.35-.17-2-.95-5.67-5.89-10-11.83-10s-10.87 4.33-11.82 10c-.11.65-.17 1.31-.17 1.99s-2 .01-2 .01h-8.01c0-.69-.06-1.35-.17-2-.95-5.67-5.89-10-11.83-10s-10.87 4.33-11.82 10c-.11.65-.17 1.31-.17 1.99s-2 .01-2 .01h-8.01c0-.69-.06-1.35-.17-2-.95-5.67-5.89-10-11.83-10s-10.87 4.33-11.82 10c-.11.65-.17 1.31-.17 1.99s-2 .01-2 .01h-8.01c0-.69-.06-1.35-.17-2-.95-5.67-5.89-10-11.83-10S86.12 6.33 85.17 12c-.11.65-.17 1.31-.17 1.99S83 14 83 14h-8.01c0-.69-.06-1.35-.17-2-.95-5.67-5.89-10-11.83-10S52.12 6.33 51.17 12c-.11.65-.17 1.31-.17 1.99S49 14 49 14h-8.01c0-.69-.06-1.35-.17-2-.95-5.67-5.89-10-11.83-10S18.12 6.33 17.17 12c-.11.65-.17 1.31-.17 1.99S15 14 15 14H0v-2h15.14c.97-6.78 6.81-12 13.85-12s12.89 5.22 13.86 12h6.29c.97-6.78 6.81-12 13.85-12s12.89 5.22 13.86 12h6.29c.97-6.78 6.81-12 13.85-12s12.89 5.22 13.86 12h6.29c.97-6.78 6.81-12 13.85-12s12.89 5.22 13.86 12h6.29c.97-6.78 6.81-12 13.85-12s12.89 5.22 13.86 12h6.29c.97-6.78 6.81-12 13.85-12s12.89 5.22 13.86 12h6.29c.97-6.78 6.81-12 13.85-12s12.89 5.22 13.86 12h6.29c.97-6.78 6.81-12 13.85-12s12.89 5.22 13.86 12h6.29c.97-6.78 6.81-12 13.85-12s12.89 5.22 13.86 12h6.29c.97-6.78 6.81-12 13.85-12s12.89 5.22 13.86 12h6.29c.97-6.78 6.81-12 13.85-12s12.89 5.22 13.86 12H398v2h-15.01z" fill="#00c27e"/></g></g></svg>