<svg id="Layer_2" data-name="Layer 2" xmlns="http://www.w3.org/2000/svg" viewBox="0 0 398 14"><defs><style>.cls-1{fill:#e6fcf4}</style></defs><g id="_3Column" data-name="3Column"><g id="_3ColumnTop" data-name="3ColumnTop"><path class="cls-1" d="M17.17 2C17.06 1.35 17 .69 17 .01S40.99 0 40.99 0c0 .69-.06 1.35-.17 2-.95 5.67-5.89 10-11.83 10S18.12 7.67 17.17 2zM51.17 2C51.06 1.35 51 .69 51 .01S74.99 0 74.99 0c0 .69-.06 1.35-.17 2-.95 5.67-5.89 10-11.83 10S52.12 7.67 51.17 2zM85.17 2C85.06 1.35 85 .69 85 .01S108.99 0 108.99 0c0 .69-.06 1.35-.17 2-.95 5.67-5.89 10-11.83 10S86.12 7.67 85.17 2zM119.17 2c-.11-.65-.17-1.31-.17-1.99S142.99 0 142.99 0c0 .69-.06 1.35-.17 2-.95 5.67-5.89 10-11.83 10s-10.87-4.33-11.82-10zM153.17 2c-.11-.65-.17-1.31-.17-1.99S176.99 0 176.99 0c0 .69-.06 1.35-.17 2-.95 5.67-5.89 10-11.83 10s-10.87-4.33-11.82-10zM187.17 2c-.11-.65-.17-1.31-.17-1.99S210.99 0 210.99 0c0 .69-.06 1.35-.17 2-.95 5.67-5.89 10-11.83 10s-10.87-4.33-11.82-10zM221.17 2c-.11-.65-.17-1.31-.17-1.99S244.99 0 244.99 0c0 .69-.06 1.35-.17 2-.95 5.67-5.89 10-11.83 10s-10.87-4.33-11.82-10zM255.17 2c-.11-.65-.17-1.31-.17-1.99S278.99 0 278.99 0c0 .69-.06 1.35-.17 2-.95 5.67-5.89 10-11.83 10s-10.87-4.33-11.82-10zM289.17 2c-.11-.65-.17-1.31-.17-1.99S312.99 0 312.99 0c0 .69-.06 1.35-.17 2-.95 5.67-5.89 10-11.83 10s-10.87-4.33-11.82-10zM323.17 2c-.11-.65-.17-1.31-.17-1.99S346.99 0 346.99 0c0 .69-.06 1.35-.17 2-.95 5.67-5.89 10-11.83 10s-10.87-4.33-11.82-10zM380.99 0c0 .69-.06 1.35-.17 2-.95 5.67-5.89 10-11.83 10s-10.87-4.33-11.82-10c-.11-.65-.17-1.31-.17-1.99S380.99 0 380.99 0z"/><path id="_3ColumnTop-2" data-name="3ColumnTop" d="M382.99 0h-2c0 .69-.06 1.35-.17 2-.95 5.67-5.89 10-11.83 10s-10.87-4.33-11.82-10c-.11-.65-.17-1.31-.17-1.99S355 0 355 0h-8.01c0 .69-.06 1.35-.17 2-.95 5.67-5.89 10-11.83 10s-10.87-4.33-11.82-10c-.11-.65-.17-1.31-.17-1.99S321 0 321 0h-8.01c0 .69-.06 1.35-.17 2-.95 5.67-5.89 10-11.83 10s-10.87-4.33-11.82-10c-.11-.65-.17-1.31-.17-1.99S287 0 287 0h-8.01c0 .69-.06 1.35-.17 2-.95 5.67-5.89 10-11.83 10s-10.87-4.33-11.82-10c-.11-.65-.17-1.31-.17-1.99S253 0 253 0h-8.01c0 .69-.06 1.35-.17 2-.95 5.67-5.89 10-11.83 10s-10.87-4.33-11.82-10c-.11-.65-.17-1.31-.17-1.99S219 0 219 0h-8.01c0 .69-.06 1.35-.17 2-.95 5.67-5.89 10-11.83 10s-10.87-4.33-11.82-10c-.11-.65-.17-1.31-.17-1.99S185 0 185 0h-8.01c0 .69-.06 1.35-.17 2-.95 5.67-5.89 10-11.83 10s-10.87-4.33-11.82-10c-.11-.65-.17-1.31-.17-1.99S151 0 151 0h-8.01c0 .69-.06 1.35-.17 2-.95 5.67-5.89 10-11.83 10s-10.87-4.33-11.82-10c-.11-.65-.17-1.31-.17-1.99S117 0 117 0h-8.01c0 .69-.06 1.35-.17 2-.95 5.67-5.89 10-11.83 10S86.12 7.67 85.17 2C85.06 1.35 85 .69 85 .01S83 0 83 0h-8.01c0 .69-.06 1.35-.17 2-.95 5.67-5.89 10-11.83 10S52.12 7.67 51.17 2C51.06 1.35 51 .69 51 .01S49 0 49 0h-8.01c0 .69-.06 1.35-.17 2-.95 5.67-5.89 10-11.83 10S18.12 7.67 17.17 2C17.06 1.35 17 .69 17 .01S15 0 15 0H0v2h15.14c.97 6.78 6.81 12 13.85 12S41.88 8.78 42.85 2h6.29c.97 6.78 6.81 12 13.85 12S75.88 8.78 76.85 2h6.29c.97 6.78 6.81 12 13.85 12s12.89-5.22 13.86-12h6.29c.97 6.78 6.81 12 13.85 12s12.89-5.22 13.86-12h6.29c.97 6.78 6.81 12 13.85 12s12.89-5.22 13.86-12h6.29c.97 6.78 6.81 12 13.85 12s12.89-5.22 13.86-12h6.29c.97 6.78 6.81 12 13.85 12s12.89-5.22 13.86-12h6.29c.97 6.78 6.81 12 13.85 12s12.89-5.22 13.86-12h6.29c.97 6.78 6.81 12 13.85 12s12.89-5.22 13.86-12h6.29c.97 6.78 6.81 12 13.85 12s12.89-5.22 13.86-12h6.29c.97 6.78 6.81 12 13.85 12s12.89-5.22 13.86-12H398V0h-15.01z" fill="#00c27e"/></g></g></svg>