<svg id="Layer_2" data-name="Layer 2" xmlns="http://www.w3.org/2000/svg" viewBox="0 0 536 14"><defs><style>.cls-1{fill:#e6fcf4}</style></defs><g id="_4Column" data-name="4Column"><g id="_4ColumnTop" data-name="4ColumnTop"><path class="cls-1" d="M18.16 2c-.11-.65-.17-1.32-.17-2h23.99c0 .68-.06 1.35-.17 2-.96 5.66-5.9 9.98-11.83 9.98S19.12 7.66 18.16 2zM52.16 2c-.11-.65-.17-1.32-.17-2h23.99c0 .68-.06 1.35-.17 2-.96 5.66-5.9 9.98-11.83 9.98S53.12 7.66 52.16 2zM86.16 2c-.11-.65-.17-1.32-.17-2h23.99c0 .68-.06 1.35-.17 2-.96 5.66-5.9 9.98-11.83 9.98S87.12 7.66 86.16 2zM120.16 2c-.11-.65-.17-1.32-.17-2h23.98c0 .68-.06 1.35-.17 2-.96 5.66-5.9 9.98-11.82 9.98S121.12 7.66 120.16 2zM154.16 2c-.11-.65-.17-1.32-.17-2h23.99c0 .68-.06 1.35-.17 2-.96 5.66-5.9 9.98-11.83 9.98S155.12 7.66 154.16 2zM188.16 2c-.11-.65-.17-1.32-.17-2h23.99c0 .68-.06 1.35-.17 2-.96 5.66-5.9 9.98-11.83 9.98S189.12 7.66 188.16 2zM222.16 2c-.11-.65-.17-1.32-.17-2h23.99c0 .68-.06 1.35-.17 2-.96 5.66-5.9 9.98-11.83 9.98S223.12 7.66 222.16 2zM256.15 2c-.11-.65-.17-1.32-.17-2h23.99c0 .68-.06 1.35-.17 2-.96 5.66-5.9 9.98-11.82 9.98S257.11 7.66 256.15 2zM290.16 2c-.11-.65-.17-1.32-.17-2h23.99c0 .68-.06 1.35-.17 2-.96 5.66-5.9 9.98-11.82 9.98S291.12 7.66 290.16 2zM324.16 2c-.11-.65-.17-1.31-.17-1.99S347.98 0 347.98 0c0 .69-.06 1.35-.17 2-.95 5.67-5.89 10-11.83 10s-10.87-4.33-11.82-10zM358.16 2c-.11-.65-.17-1.31-.17-1.99S381.98 0 381.98 0c0 .69-.06 1.35-.17 2-.95 5.67-5.89 10-11.82 10s-10.88-4.33-11.83-10zM392.16 2c-.11-.65-.17-1.31-.17-1.99S415.98 0 415.98 0c0 .69-.06 1.35-.17 2-.95 5.67-5.89 10-11.82 10s-10.88-4.33-11.83-10zM426.16 2c-.11-.65-.17-1.31-.17-1.99S449.98 0 449.98 0c0 .69-.06 1.35-.17 2-.95 5.67-5.89 10-11.82 10s-10.88-4.33-11.83-10zM459.99 0h23.99c0 .69-.06 1.35-.17 2-.95 5.67-5.89 10-11.82 10s-10.88-4.33-11.83-10c-.11-.65-.17-1.31-.17-1.99zM517.97 0c0 .68-.06 1.35-.17 2-.96 5.66-5.9 9.98-11.82 9.98S495.12 7.66 494.16 2c-.11-.65-.17-1.32-.17-2h23.98z"/><path id="_4ColumnTop-2" data-name="4ColumnTop" d="M519.97 0h-2c0 .68-.06 1.35-.17 2-.96 5.66-5.9 9.98-11.82 9.98S495.12 7.66 494.16 2c-.11-.65-.17-1.32-.17-2h-10.01c0 .69-.06 1.35-.17 2-.95 5.67-5.89 10-11.82 10s-10.88-4.33-11.83-10c-.11-.65-.17-1.31-.17-1.99s-2 0-2 0h-8.01c0 .69-.06 1.35-.17 2-.95 5.67-5.89 10-11.82 10s-10.88-4.33-11.83-10c-.11-.65-.17-1.31-.17-1.99s-2 0-2 0h-8.01c0 .69-.06 1.35-.17 2-.95 5.67-5.89 10-11.82 10s-10.88-4.33-11.83-10c-.11-.65-.17-1.31-.17-1.99s-2 0-2 0h-8.01c0 .69-.06 1.35-.17 2-.95 5.67-5.89 10-11.82 10s-10.88-4.33-11.83-10c-.11-.65-.17-1.31-.17-1.99s-2 0-2 0h-8.01c0 .69-.06 1.35-.17 2-.95 5.67-5.89 10-11.83 10s-10.87-4.33-11.82-10c-.11-.65-.17-1.31-.17-1.99s-2 0-2 0h-8.01c0 .68-.06 1.35-.17 2-.96 5.66-5.9 9.98-11.82 9.98s-10.87-4.32-11.83-9.98c-.11-.65-.17-1.32-.17-2h-10.02c0 .68-.06 1.35-.17 2-.96 5.66-5.9 9.98-11.82 9.98s-10.87-4.32-11.83-9.98c-.11-.65-.17-1.32-.17-2h-10c0 .68-.06 1.35-.17 2-.96 5.66-5.9 9.98-11.83 9.98s-10.86-4.32-11.82-9.98c-.11-.65-.17-1.32-.17-2h-10.01c0 .68-.06 1.35-.17 2-.96 5.66-5.9 9.98-11.83 9.98s-10.86-4.32-11.82-9.98c-.11-.65-.17-1.32-.17-2h-10.01c0 .68-.06 1.35-.17 2-.96 5.66-5.9 9.98-11.83 9.98s-10.86-4.32-11.82-9.98c-.11-.65-.17-1.32-.17-2h-10.02c0 .68-.06 1.35-.17 2-.96 5.66-5.9 9.98-11.82 9.98s-10.86-4.32-11.82-9.98c-.11-.65-.17-1.32-.17-2h-10.01c0 .68-.06 1.35-.17 2-.96 5.66-5.9 9.98-11.83 9.98S87.12 7.71 86.16 2.05c-.11-.65-.17-1.32-.17-2H75.98c0 .68-.06 1.35-.17 2-.96 5.66-5.9 9.98-11.83 9.98S53.12 7.71 52.16 2.05c-.11-.65-.17-1.32-.17-2H41.98c0 .68-.06 1.35-.17 2-.96 5.66-5.9 9.98-11.83 9.98S19.12 7.66 18.16 2c-.11-.65-.17-1.32-.17-2H0v2h16.13c.98 6.77 6.82 11.98 13.85 11.98S42.86 8.77 43.84 2h6.29c.98 6.76 6.82 11.98 13.85 11.98S76.86 8.76 77.84 2h6.29c.98 6.76 6.82 11.98 13.85 11.98S110.86 8.76 111.84 2h6.29c.98 6.76 6.81 11.98 13.85 11.98S144.85 8.76 145.83 2h6.3c.98 6.77 6.82 11.98 13.85 11.98S178.86 8.77 179.84 2h6.29c.98 6.76 6.82 11.98 13.85 11.98S212.86 8.76 213.84 2h6.29c.98 6.76 6.82 11.98 13.85 11.98S246.86 8.76 247.84 2h6.28c.98 6.76 6.82 11.98 13.86 11.98S280.85 8.76 281.83 2h6.3c.98 6.76 6.82 11.98 13.86 11.98S314.86 8.76 315.84 2h6.29c.97 6.77 6.81 12 13.85 12s12.89-5.23 13.86-12h6.29c.97 6.77 6.82 12 13.86 12s12.88-5.23 13.85-12h6.29c.97 6.77 6.82 12 13.86 12s12.88-5.23 13.85-12h6.29c.97 6.77 6.82 12 13.86 12s12.88-5.23 13.85-12h6.29c.97 6.77 6.82 12 13.86 12s12.88-5.23 13.85-12h6.29c.98 6.76 6.81 11.98 13.85 11.98S518.85 8.76 519.83 2H536V0h-16.03z" fill="#00c27e"/></g></g></svg>