<svg id="Layer_2" data-name="Layer 2" xmlns="http://www.w3.org/2000/svg" viewBox="0 0 536 14"><defs><style>.cls-1{fill:#e6fcf4}</style></defs><g id="_4Column" data-name="4Column"><g id="_4ColumnBottom" data-name="4ColumnBottom"><path class="cls-1" d="M18.16 12c-.11.65-.17 1.32-.17 2h23.99c0-.68-.06-1.35-.17-2-.96-5.66-5.9-9.98-11.83-9.98S19.12 6.34 18.16 12zM52.16 12c-.11.65-.17 1.32-.17 2h23.99c0-.68-.06-1.35-.17-2-.96-5.66-5.9-9.98-11.83-9.98S53.12 6.34 52.16 12zM86.16 12c-.11.65-.17 1.32-.17 2h23.99c0-.68-.06-1.35-.17-2-.96-5.66-5.9-9.98-11.83-9.98S87.12 6.34 86.16 12zM120.16 12c-.11.65-.17 1.32-.17 2h23.98c0-.68-.06-1.35-.17-2-.96-5.66-5.9-9.98-11.82-9.98S121.12 6.34 120.16 12zM154.16 12c-.11.65-.17 1.32-.17 2h23.99c0-.68-.06-1.35-.17-2-.96-5.66-5.9-9.98-11.83-9.98S155.12 6.34 154.16 12zM188.16 12c-.11.65-.17 1.32-.17 2h23.99c0-.68-.06-1.35-.17-2-.96-5.66-5.9-9.98-11.83-9.98S189.12 6.34 188.16 12zM222.16 12c-.11.65-.17 1.32-.17 2h23.99c0-.68-.06-1.35-.17-2-.96-5.66-5.9-9.98-11.83-9.98S223.12 6.34 222.16 12zM256.15 12c-.11.65-.17 1.32-.17 2h23.99c0-.68-.06-1.35-.17-2-.96-5.66-5.9-9.98-11.82-9.98S257.11 6.34 256.15 12zM290.16 12c-.11.65-.17 1.32-.17 2h23.99c0-.68-.06-1.35-.17-2-.96-5.66-5.9-9.98-11.82-9.98S291.12 6.34 290.16 12zM324.16 12c-.11.65-.17 1.31-.17 1.99s23.99.01 23.99.01c0-.69-.06-1.35-.17-2-.95-5.67-5.89-10-11.83-10s-10.87 4.33-11.82 10zM358.16 12c-.11.65-.17 1.31-.17 1.99s23.99.01 23.99.01c0-.69-.06-1.35-.17-2-.95-5.67-5.89-10-11.82-10s-10.88 4.33-11.83 10zM392.16 12c-.11.65-.17 1.31-.17 1.99s23.99.01 23.99.01c0-.69-.06-1.35-.17-2-.95-5.67-5.89-10-11.82-10s-10.88 4.33-11.83 10zM426.16 12c-.11.65-.17 1.31-.17 1.99s23.99.01 23.99.01c0-.69-.06-1.35-.17-2-.95-5.67-5.89-10-11.82-10s-10.88 4.33-11.83 10zM459.99 14h23.99c0-.69-.06-1.35-.17-2-.95-5.67-5.89-10-11.82-10s-10.88 4.33-11.83 10c-.11.65-.17 1.31-.17 1.99zM517.97 14c0-.68-.06-1.35-.17-2-.96-5.66-5.9-9.98-11.82-9.98S495.12 6.34 494.16 12c-.11.65-.17 1.32-.17 2h23.98z"/><path id="_4ColumnTop" data-name="4ColumnTop" d="M519.97 14h-2c0-.68-.06-1.35-.17-2-.96-5.66-5.9-9.98-11.82-9.98S495.12 6.34 494.16 12c-.11.65-.17 1.32-.17 2h-10.01c0-.69-.06-1.35-.17-2-.95-5.67-5.89-10-11.82-10s-10.88 4.33-11.83 10c-.11.65-.17 1.31-.17 1.99s-2 0-2 0h-8.01c0-.69-.06-1.35-.17-2-.95-5.67-5.89-10-11.82-10s-10.88 4.33-11.83 10c-.11.65-.17 1.31-.17 1.99s-2 0-2 0h-8.01c0-.69-.06-1.35-.17-2-.95-5.67-5.89-10-11.82-10s-10.88 4.33-11.83 10c-.11.65-.17 1.31-.17 1.99s-2 0-2 0h-8.01c0-.69-.06-1.35-.17-2-.95-5.67-5.89-10-11.82-10s-10.88 4.33-11.83 10c-.11.65-.17 1.31-.17 1.99s-2 0-2 0h-8.01c0-.69-.06-1.35-.17-2-.95-5.67-5.89-10-11.83-10s-10.87 4.33-11.82 10c-.11.65-.17 1.31-.17 1.99s-2 0-2 0h-8.01c0-.68-.06-1.35-.17-2-.96-5.66-5.9-9.98-11.82-9.98s-10.87 4.32-11.83 9.98c-.11.65-.17 1.32-.17 2h-10.02c0-.68-.06-1.35-.17-2-.96-5.66-5.9-9.98-11.82-9.98s-10.87 4.32-11.83 9.98c-.11.65-.17 1.32-.17 2h-10c0-.68-.06-1.35-.17-2-.96-5.66-5.9-9.98-11.83-9.98s-10.86 4.32-11.82 9.98c-.11.65-.17 1.32-.17 2h-10.01c0-.68-.06-1.35-.17-2-.96-5.66-5.9-9.98-11.83-9.98s-10.86 4.32-11.82 9.98c-.11.65-.17 1.32-.17 2h-10.01c0-.68-.06-1.35-.17-2-.96-5.66-5.9-9.98-11.83-9.98s-10.86 4.32-11.82 9.98c-.11.65-.17 1.32-.17 2h-10.02c0-.68-.06-1.35-.17-2-.96-5.66-5.9-9.98-11.82-9.98s-10.86 4.32-11.82 9.98c-.11.65-.17 1.32-.17 2h-10.01c0-.68-.06-1.35-.17-2-.96-5.66-5.9-9.98-11.83-9.98s-10.86 4.32-11.82 9.98c-.11.65-.17 1.32-.17 2H75.98c0-.68-.06-1.35-.17-2-.96-5.66-5.9-9.98-11.83-9.98s-10.86 4.32-11.82 9.98c-.11.65-.17 1.32-.17 2H41.98c0-.68-.06-1.35-.17-2-.96-5.66-5.9-9.98-11.83-9.98s-10.86 4.32-11.82 9.98c-.11.65-.17 1.32-.17 2H0v-2h16.13C17.11 5.23 22.95.02 29.98.02S42.86 5.23 43.84 12h6.29C51.11 5.24 56.95.02 63.98.02S76.86 5.24 77.84 12h6.29C85.11 5.24 90.95.02 97.98.02S110.86 5.24 111.84 12h6.29c.98-6.76 6.81-11.98 13.85-11.98S144.85 5.24 145.83 12h6.3c.98-6.77 6.82-11.98 13.85-11.98S178.86 5.23 179.84 12h6.29c.98-6.76 6.82-11.98 13.85-11.98S212.86 5.24 213.84 12h6.29c.98-6.76 6.82-11.98 13.85-11.98S246.86 5.24 247.84 12h6.28C255.1 5.24 260.94.02 267.98.02S280.85 5.24 281.83 12h6.3c.98-6.76 6.82-11.98 13.86-11.98S314.86 5.24 315.84 12h6.29c.97-6.77 6.81-12 13.85-12s12.89 5.23 13.86 12h6.29c.97-6.77 6.82-12 13.86-12s12.88 5.23 13.85 12h6.29c.97-6.77 6.82-12 13.86-12s12.88 5.23 13.85 12h6.29c.97-6.77 6.82-12 13.86-12s12.88 5.23 13.85 12h6.29c.97-6.77 6.82-12 13.86-12s12.88 5.23 13.85 12h6.29c.98-6.76 6.81-11.98 13.85-11.98S518.85 5.24 519.83 12H536v2h-16.03z" fill="#00c27e"/></g></g></svg>