<svg id="Layer_2" data-name="Layer 2" xmlns="http://www.w3.org/2000/svg" viewBox="0 0 14.02 270.01"><defs><style>.cls-1{fill:#e6fcf4}</style></defs><g id="_6column" data-name="6column"><g id="_6columnRight" data-name="6columnRight"><path class="cls-1" d="M14.01 78.99h.01V55h-.01c-.68 0-1.34.06-1.99.17-5.67.95-10 5.89-10 11.82s4.33 10.88 10 11.83c.65.11 1.31.17 1.99.17zM14.01 44.98h.01V20.99h-.01c-.68 0-1.34.06-1.99.17-5.67.95-10 5.89-10 11.82s4.33 10.88 10 11.83c.65.11 1.31.17 1.99.17zM2 237.01c0 5.94 4.34 10.88 10.02 11.82.65.11 1.31.17 1.98.17h.02v-23.98H14c-.67 0-1.33.06-1.98.17C6.34 226.13 2 231.07 2 237.01zM2 203.01c0 5.94 4.34 10.88 10.02 11.82.65.11 1.31.17 1.98.17h.02v-23.98H14c-.67 0-1.33.06-1.98.17C6.34 192.13 2 197.07 2 203.01zM2 169.01c0 5.94 4.34 10.88 10.02 11.82.65.11 1.31.17 1.98.17h.02v-23.98H14c-.67 0-1.33.06-1.98.17C6.34 158.13 2 163.07 2 169.01zM2 134.99c0 5.94 4.34 10.88 10.02 11.82.64.11 1.3.17 1.97.17h.03v-23.99h-.03c-.67 0-1.33.06-1.97.17C6.34 124.1 2 129.04 2 134.99zM13.99 112.99h.03V89h-.03c-.67 0-1.33.06-1.97.17C6.34 90.11 2 95.05 2 100.99s4.34 10.89 10.02 11.83c.64.11 1.3.17 1.97.17z"/><path d="M12.02 148.84v6.32C5.23 156.12 0 161.96 0 169.01s5.23 12.89 12.02 13.85v6.3C5.23 190.12 0 195.96 0 203.01s5.23 12.89 12.02 13.85v6.3C5.23 224.12 0 229.96 0 237.01s5.23 12.89 12.02 13.85v19.15h2V249H14c-.67 0-1.33-.06-1.98-.17C6.34 247.89 2 242.95 2 237.01s4.34-10.88 10.02-11.82c.65-.11 1.31-.17 1.98-.17h.02V215H14c-.67 0-1.33-.06-1.98-.17C6.34 213.89 2 208.95 2 203.01s4.34-10.88 10.02-11.82c.65-.11 1.31-.17 1.98-.17h.02V181H14c-.67 0-1.33-.06-1.98-.17C6.34 179.89 2 174.95 2 169.01s4.34-10.88 10.02-11.82c.65-.11 1.31-.17 1.98-.17h.02v-10.04h-.03c-.67 0-1.33-.06-1.97-.17C6.34 145.87 2 140.93 2 134.99s4.34-10.89 10.02-11.83c.64-.11 1.3-.17 1.97-.17h.03v-10h-.03c-.67 0-1.33-.06-1.97-.17C6.34 111.88 2 106.93 2 100.99s4.34-10.88 10.02-11.82c.64-.11 1.3-.17 1.97-.17h.03V78.99h-.01c-.68 0-1.34-.06-1.99-.17-5.67-.95-10-5.89-10-11.83s4.33-10.87 10-11.82c.65-.11 1.31-.17 1.99-.17h.01V44.98h-.01c-.68 0-1.34-.06-1.99-.17-5.67-.95-10-5.9-10-11.83s4.33-10.87 10-11.82c.65-.11 1.31-.17 1.99-.17h.01V0h-2v19.13c-6.78.97-12 6.81-12 13.85s5.22 12.89 12 13.86v6.3c-6.78.97-12 6.81-12 13.85s5.22 12.89 12 13.86v6.29C5.24 88.1 0 93.94 0 100.99s5.24 12.9 12.02 13.86v6.28C5.24 122.09 0 127.94 0 134.99s5.24 12.89 12.02 13.85z" fill="#00c27e"/></g></g></svg>