<svg id="Layer_2" data-name="Layer 2" xmlns="http://www.w3.org/2000/svg" viewBox="0 0 14.02 270.01"><defs><style>.cls-1{fill:#e6fcf4}</style></defs><g id="_6column" data-name="6column"><g id="_6columnLeft" data-name="6columnLeft"><path class="cls-1" d="M.01 78.99H0V55h.01c.68 0 1.34.06 1.99.17 5.67.95 10 5.89 10 11.82S7.67 77.87 2 78.82c-.65.11-1.31.17-1.99.17zM.01 44.98H0V20.99h.01c.68 0 1.34.06 1.99.17 5.67.95 10 5.89 10 11.82S7.67 43.86 2 44.81c-.65.11-1.31.17-1.99.17zM12.02 237.01c0 5.94-4.34 10.88-10.02 11.82-.65.11-1.31.17-1.98.17H0v-23.98h.02c.67 0 1.33.06 1.98.17 5.68.94 10.02 5.88 10.02 11.82zM12.02 203.01c0 5.94-4.34 10.88-10.02 11.82-.65.11-1.31.17-1.98.17H0v-23.98h.02c.67 0 1.33.06 1.98.17 5.68.94 10.02 5.88 10.02 11.82zM12.02 169.01c0 5.94-4.34 10.88-10.02 11.82-.65.11-1.31.17-1.98.17H0v-23.98h.02c.67 0 1.33.06 1.98.17 5.68.94 10.02 5.88 10.02 11.82zM12.02 134.99c0 5.94-4.34 10.88-10.02 11.82-.64.11-1.3.17-1.97.17H0v-23.99h.03c.67 0 1.33.06 1.97.17 5.68.94 10.02 5.88 10.02 11.83zM.03 112.99H0V89h.03c.67 0 1.33.06 1.97.17 5.68.94 10.02 5.88 10.02 11.82S7.68 111.88 2 112.82c-.64.11-1.3.17-1.97.17z"/><path d="M2 148.84v6.32c6.79.96 12.02 6.8 12.02 13.85S8.79 181.9 2 182.86v6.3c6.79.96 12.02 6.8 12.02 13.85S8.79 215.9 2 216.86v6.3c6.79.96 12.02 6.8 12.02 13.85S8.79 249.9 2 250.86v19.15H0V249h.02c.67 0 1.33-.06 1.98-.17 5.68-.94 10.02-5.88 10.02-11.82S7.68 226.13 2 225.19c-.65-.11-1.31-.17-1.98-.17H0V215h.02c.67 0 1.33-.06 1.98-.17 5.68-.94 10.02-5.88 10.02-11.82S7.68 192.13 2 191.19c-.65-.11-1.31-.17-1.98-.17H0V181h.02c.67 0 1.33-.06 1.98-.17 5.68-.94 10.02-5.88 10.02-11.82S7.68 158.13 2 157.19c-.65-.11-1.31-.17-1.98-.17H0v-10.04h.03c.67 0 1.33-.06 1.97-.17 5.68-.94 10.02-5.88 10.02-11.82S7.68 124.1 2 123.16c-.64-.11-1.3-.17-1.97-.17H0v-10h.03c.67 0 1.33-.06 1.97-.17 5.68-.94 10.02-5.89 10.02-11.83S7.68 90.11 2 89.17C1.36 89.06.7 89 .03 89H0V78.99h.01c.68 0 1.34-.06 1.99-.17 5.67-.95 10-5.89 10-11.83S7.67 56.12 2 55.17C1.35 55.06.69 55 .01 55H0V44.98h.01c.68 0 1.34-.06 1.99-.17 5.67-.95 10-5.9 10-11.83S7.67 22.11 2 21.16c-.65-.11-1.31-.17-1.99-.17H0V0h2v19.13c6.78.97 12 6.81 12 13.85S8.78 45.87 2 46.84v6.3c6.78.97 12 6.81 12 13.85S8.78 79.88 2 80.85v6.29c6.78.96 12.02 6.8 12.02 13.85S8.78 113.89 2 114.85v6.28c6.78.96 12.02 6.81 12.02 13.86S8.78 147.88 2 148.84z" fill="#00c27e"/></g></g></svg>