<svg id="Group_4890" data-name="Group 4890" xmlns="http://www.w3.org/2000/svg" width="42.241"
  height="29.572" viewBox="0 0 42.241 29.572">
  <path id="Path_5043" data-name="Path 5043"
    d="M1796.613-379.694a1.488,1.488,0,0,1,1.592-.952c5.881.018,11.762.01,17.643.01h.544v14.792c-.159.007-.305.02-.451.02q-9.46,0-18.921,0c-.136,0-.271-.022-.407-.034Zm2.461.3a1.239,1.239,0,0,0-1.223,1.241,1.24,1.24,0,0,0,1.25,1.214,1.239,1.239,0,0,0,1.222-1.242A1.239,1.239,0,0,0,1799.074-379.4Zm6.2,1.213a1.239,1.239,0,0,0-1.25-1.213,1.239,1.239,0,0,0-1.222,1.241,1.24,1.24,0,0,0,1.25,1.214A1.238,1.238,0,0,0,1805.274-378.185Zm3.716-1.213a1.238,1.238,0,0,0-1.239,1.225,1.239,1.239,0,0,0,1.234,1.23,1.239,1.239,0,0,0,1.239-1.226A1.239,1.239,0,0,0,1808.99-379.4Zm4.945,2.455a1.239,1.239,0,0,0,1.24-1.225,1.238,1.238,0,0,0-1.233-1.23,1.239,1.239,0,0,0-1.24,1.224A1.24,1.24,0,0,0,1813.935-376.943ZM1802.8-375.7a1.239,1.239,0,0,0-1.237-1.227,1.239,1.239,0,0,0-1.237,1.227,1.239,1.239,0,0,0,1.237,1.228A1.239,1.239,0,0,0,1802.8-375.7Zm4.95,0a1.238,1.238,0,0,0-1.233-1.23,1.239,1.239,0,0,0-1.24,1.224,1.239,1.239,0,0,0,1.233,1.231A1.239,1.239,0,0,0,1807.75-375.7Zm4.95-.02a1.239,1.239,0,0,0-1.253-1.21,1.239,1.239,0,0,0-1.219,1.244,1.239,1.239,0,0,0,1.253,1.211A1.239,1.239,0,0,0,1812.7-375.718ZM1799.091-372a1.239,1.239,0,0,0,1.234-1.231,1.239,1.239,0,0,0-1.24-1.224,1.238,1.238,0,0,0-1.234,1.23A1.239,1.239,0,0,0,1799.091-372Zm4.931-2.455a1.239,1.239,0,0,0-1.22,1.244,1.24,1.24,0,0,0,1.253,1.211,1.238,1.238,0,0,0,1.22-1.244A1.239,1.239,0,0,0,1804.022-374.458Zm6.2,1.243a1.238,1.238,0,0,0-1.22-1.243,1.239,1.239,0,0,0-1.252,1.211,1.239,1.239,0,0,0,1.22,1.244A1.239,1.239,0,0,0,1810.224-373.214Zm3.705-1.243a1.239,1.239,0,0,0-1.228,1.236,1.24,1.24,0,0,0,1.245,1.219,1.239,1.239,0,0,0,1.228-1.236A1.239,1.239,0,0,0,1813.93-374.458Zm-11.131,3.716a1.238,1.238,0,0,0-1.218-1.246,1.239,1.239,0,0,0-1.255,1.209,1.239,1.239,0,0,0,1.218,1.246A1.239,1.239,0,0,0,1802.8-370.741Zm3.731-1.246a1.238,1.238,0,0,0-1.253,1.21,1.239,1.239,0,0,0,1.219,1.245,1.239,1.239,0,0,0,1.254-1.211A1.239,1.239,0,0,0,1806.53-371.987Zm6.17,1.228a1.239,1.239,0,0,0-1.236-1.228,1.239,1.239,0,0,0-1.238,1.227,1.239,1.239,0,0,0,1.236,1.229A1.239,1.239,0,0,0,1812.7-370.759Zm-12.375,2.456a1.239,1.239,0,0,0-1.25-1.214,1.239,1.239,0,0,0-1.223,1.241,1.239,1.239,0,0,0,1.25,1.214A1.239,1.239,0,0,0,1800.324-368.3Zm4.95.006a1.239,1.239,0,0,0-1.244-1.219,1.239,1.239,0,0,0-1.229,1.235,1.239,1.239,0,0,0,1.244,1.22A1.239,1.239,0,0,0,1805.274-368.3Zm4.95.025a1.238,1.238,0,0,0-1.219-1.245,1.239,1.239,0,0,0-1.254,1.21,1.239,1.239,0,0,0,1.219,1.245A1.239,1.239,0,0,0,1810.224-368.272Zm4.95-.005a1.239,1.239,0,0,0-1.224-1.239,1.239,1.239,0,0,0-1.248,1.215,1.239,1.239,0,0,0,1.224,1.24A1.239,1.239,0,0,0,1815.175-368.278Z"
    transform="translate(-1796.613 380.646)" fill="#ea5a4f" />
  <path id="Path_5044" data-name="Path 5044"
    d="M1796.613-223.77c.191.012.382.034.572.034l41.1.014c.191,0,.381.022.572.034v2.47c-.163-.012-.326-.034-.49-.034q-20.631,0-41.262,0c-.163,0-.326.022-.49.034Z"
    transform="translate(-1796.613 241.027)" fill="#ea5a4f" />
  <path id="Path_5045" data-name="Path 5045"
    d="M1796.613-178.418c.163-.013.326-.037.489-.037q20.632,0,41.263,0c.163,0,.326.024.489.037v2.47c-.163-.013-.326-.037-.489-.037q-20.632,0-41.263,0c-.163,0-.326.024-.489.037Z"
    transform="translate(-1796.613 200.697)" fill="#ea5a4f" />
  <path id="Path_5046" data-name="Path 5046"
    d="M1796.613-133.478c.163-.012.326-.034.49-.034q20.631,0,41.262,0c.163,0,.326.022.49.034v1.4a1.494,1.494,0,0,1-1.593.951q-19.527-.02-39.055,0a1.493,1.493,0,0,1-1.594-.951Z"
    transform="translate(-1796.613 160.699)" fill="#ea5a4f" />
  <path id="Path_5047" data-name="Path 5047"
    d="M2019.2-266.133c-.177-.013-.354-.036-.53-.036q-9.44,0-18.88,0h-.54v-2.476h.54q9.44,0,18.88,0c.177,0,.353-.024.53-.037Z"
    transform="translate(-1976.96 281.002)" fill="#ea5a4f" />
  <path id="Path_5048" data-name="Path 5048"
    d="M2019.347-311.132c-.135.013-.271.037-.406.037q-9.562,0-19.125,0h-.4v-2.471h.525q9.439,0,18.877,0c.177,0,.354-.024.53-.037Z"
    transform="translate(-1977.106 320.977)" fill="#ea5a4f" />
  <path id="Path_5049" data-name="Path 5049"
    d="M2019.294-356.14c-.136.012-.271.034-.407.034q-9.549,0-19.1,0h-.434v-2.506h.419c5.967,0,11.934.009,17.9-.011a1.561,1.561,0,0,1,1.619.917Z"
    transform="translate(-1977.053 361.045)" fill="#ea5a4f" />
</svg>