<svg xmlns="http://www.w3.org/2000/svg" width="37.546" height="29.501" viewBox="0 0 37.546 29.501">
  <path id="Icon_awesome-shipping-fast" data-name="Icon awesome-shipping-fast"
    d="M36.608,20.282h-.939V14.053a2.741,2.741,0,0,0-.827-1.953L28.981,6.344a2.842,2.842,0,0,0-1.989-.812H24.405V2.766A2.792,2.792,0,0,0,21.589,0H6.571A2.792,2.792,0,0,0,3.755,2.766V5.531H.469A.467.467,0,0,0,0,5.992v.922a.467.467,0,0,0,.469.461H16.426a.467.467,0,0,1,.469.461v.922a.467.467,0,0,1-.469.461H2.347a.467.467,0,0,0-.469.461V10.6a.467.467,0,0,0,.469.461h12.2a.467.467,0,0,1,.469.461v.922a.467.467,0,0,1-.469.461H.469A.467.467,0,0,0,0,13.367v.922a.467.467,0,0,0,.469.461h12.2a.467.467,0,0,1,.469.461v.922a.467.467,0,0,1-.469.461H3.755v7.375A5.584,5.584,0,0,0,9.387,29.5a5.584,5.584,0,0,0,5.632-5.531h7.509a5.633,5.633,0,0,0,11.264,0h2.816a.933.933,0,0,0,.939-.922V21.2A.933.933,0,0,0,36.608,20.282ZM9.387,26.735A2.766,2.766,0,1,1,12.2,23.969,2.792,2.792,0,0,1,9.387,26.735Zm18.773,0a2.766,2.766,0,1,1,2.816-2.766A2.792,2.792,0,0,1,28.16,26.735ZM32.853,14.75H24.405V8.3h2.587l5.861,5.756Z"
    fill="#ea5a4f" />
</svg>