<svg id="Layer_2" data-name="Layer 2" xmlns="http://www.w3.org/2000/svg" viewBox="0 0 14.02 168"><defs><style>.cls-1{fill:#e6fcf4}</style></defs><g id="Full_Width" data-name="Full Width"><g id="FullWidthCardLeft"><path class="cls-1" d="M.01 78.99H0V55h.01c.68 0 1.34.06 1.99.17 5.67.95 10 5.9 10 11.83S7.67 77.87 2 78.82c-.65.11-1.31.17-1.99.17zM.01 44.98H0V20.99h.01c.68 0 1.34.06 1.99.17 5.67.95 10 5.89 10 11.83S7.67 43.86 2 44.81c-.65.11-1.31.17-1.99.17zM2 146.82c-.64.11-1.3.17-1.97.17H0V123h.03c.67 0 1.33.06 1.97.17 5.68.94 10.02 5.88 10.02 11.82S7.68 145.88 2 146.82zM.03 112.99H0V89h.03c.67 0 1.33.06 1.97.17 5.68.94 10.02 5.88 10.02 11.83S7.68 111.88 2 112.82c-.64.11-1.3.17-1.97.17z"/><path id="FullWidthCardLeft-2" data-name="FullWidthCardLeft" d="M2 121.14v-6.29c6.79-.96 12.02-6.81 12.02-13.85S8.79 88.1 2 87.14v-6.29c6.78-.97 12-6.81 12-13.85S8.78 54.11 2 53.14v-6.3c6.78-.97 12-6.81 12-13.85S8.78 20.1 2 19.13V0H0v20.99h.01c.68 0 1.34.06 1.99.17 5.67.95 10 5.89 10 11.83S7.67 43.86 2 44.81c-.65.11-1.31.17-1.99.17H0V55h.01c.68 0 1.34.06 1.99.17 5.67.95 10 5.9 10 11.83S7.67 77.87 2 78.82c-.65.11-1.31.17-1.99.17H0V89h.03c.67 0 1.33.06 1.97.17 5.68.94 10.02 5.88 10.02 11.83S7.68 111.88 2 112.82c-.64.11-1.3.17-1.97.17H0V123h.03c.67 0 1.33.06 1.97.17 5.68.94 10.02 5.88 10.02 11.82S7.68 145.88 2 146.82c-.64.11-1.3.17-1.97.17H0V168h2v-19.15c6.79-.96 12.02-6.81 12.02-13.86S8.79 122.1 2 121.14z" fill="#00c27e"/></g></g></svg>