<svg id="Layer_2" data-name="Layer 2" xmlns="http://www.w3.org/2000/svg" viewBox="0 0 14.02 168"><defs><style>.cls-1{fill:#e6fcf4}</style></defs><g id="Full_Width" data-name="Full Width"><g id="FullWidthCardRight"><path class="cls-1" d="M14.01 78.99V55c-.68 0-1.34.06-1.99.17-5.67.95-10 5.9-10 11.83s4.33 10.87 10 11.82c.65.11 1.31.17 1.99.17zM14.01 44.98V20.99c-.68 0-1.34.06-1.99.17-5.67.95-10 5.89-10 11.83s4.33 10.87 10 11.82c.65.11 1.31.17 1.99.17zM12.02 146.82c.64.11 1.3.17 1.97.17h.03V123h-.03c-.67 0-1.33.06-1.97.17C6.34 124.11 2 129.05 2 134.99s4.34 10.89 10.02 11.83zM13.99 112.99h.03V89h-.03c-.67 0-1.33.06-1.97.17C6.34 90.11 2 95.05 2 101s4.34 10.88 10.02 11.82c.64.11 1.3.17 1.97.17z"/><path id="FullWidthCardLeft" d="M12.02 121.14v-6.29C5.23 113.89 0 108.04 0 101s5.23-12.9 12.02-13.86v-6.29C5.24 79.88.02 74.04.02 67s5.22-12.89 12-13.86v-6.3c-6.78-.97-12-6.81-12-13.85s5.22-12.89 12-13.86V0h2v20.99h-.01c-.68 0-1.34.06-1.99.17-5.67.95-10 5.89-10 11.83s4.33 10.87 10 11.82c.65.11 1.31.17 1.99.17h.01V55h-.01c-.68 0-1.34.06-1.99.17-5.67.95-10 5.9-10 11.83s4.33 10.87 10 11.82c.65.11 1.31.17 1.99.17h.01V89h-.03c-.67 0-1.33.06-1.97.17C6.34 90.11 2 95.05 2 101s4.34 10.88 10.02 11.82c.64.11 1.3.17 1.97.17h.03V123h-.03c-.67 0-1.33.06-1.97.17C6.34 124.11 2 129.05 2 134.99s4.34 10.89 10.02 11.83c.64.11 1.3.17 1.97.17h.03V168h-2v-19.15C5.23 147.89 0 142.04 0 134.99s5.23-12.89 12.02-13.85z" fill="#00c27e"/></g></g></svg>