<svg xmlns="http://www.w3.org/2000/svg" xmlns:xlink="http://www.w3.org/1999/xlink" width="1831"
  height="500" viewBox="0 0 1831 500">
  <defs>
    <clipPath id="clip-path">
      <rect id="Rectangle_5" data-name="Rectangle 5" width="1820" height="500" rx="20"
        transform="translate(50 101)" fill="var(--primaryContrastColor)" />
    </clipPath>
  </defs>
  <g id="Group_12420" data-name="Group 12420" transform="translate(-50 -101)">
    <rect id="Rectangle_4" data-name="Rectangle 4" width="1820" height="500" rx="20"
      transform="translate(50 101)" fill="var(--primaryContrastColor)" />
    <g id="Mask_Group_1" data-name="Mask Group 1" transform="translate(11)"
      clip-path="url(#clip-path)">
      <g id="Group_4" data-name="Group 4" transform="translate(381.178 -19.775)" opacity="0.06">
        <path id="Path_278" data-name="Path 278"
          d="M1545.969,538.782c-88.869,30.1-195.253-10.747-276.073,36.919-41.844,24.678-55.31,67.772-88.8,98.886-26.587,24.7-69.163,45.926-105.708,43.472-53.582-3.6-92.73-51.317-135.319-84.032C874.465,583.63,781.044,589,702.541,615.116S552,685.2,472.137,706.8,296.68,722.355,240.605,661.527C222.2,641.559,208.541,616.3,185.268,602.3c-30.8-18.524-71.14-12.265-103.089,4.192S23.87,648.256-5.269,669.29c-148.987,107.548-359.164,97.145-508.669,203.97,8.75,93.015,15.469,180.872,24.218,273.887,75.1-145.474,195.532-260.377,345.277-326.553C-63.4,784.78,29.3,760.212,83.208,689.9c20.225-26.378,40.408-61.82,73.63-60.767,33.48,1.061,51.432,38.361,65.936,68.553,60.295,125.511,188.739,215.605,327.281,229.563C625.04,934.8,711.529,914.727,748.9,849.282c15.432-27.022,20.559-58.474,27.82-88.734s17.8-61.416,40.8-82.381,61.757-27.489,84.815-6.593c55.125,49.956,90.581,106.585,147.166,154.881,48.613,41.492,115.486,60.754,178.722,51.48,62.757-9.2,118.652-44.276,179.86-60.907,86.828-23.592,180.653-8.6,263.818,25.739Z"
          transform="translate(0 -274.932)" fill="var(--primaryColor)" opacity="0.6" />
        <path id="Path_279" data-name="Path 279"
          d="M1478.983,1.067c-108.835,45.122-208.656,112.927-324.334,140.66-75.219,18.034-157.582,17.339-226.549-17.683C881.5,100.383,842.12,61.861,791.844,47.609,747.517,35.044,699.592,43.1,656.481,59.351S573.739,99.7,532.636,120.516c-68.556,34.72-143.21,60.749-220.052,61.578-29.153.315-59.141-3.256-84.844-17.018s-46.476-39.231-48.5-68.316C174.452,28.1,290.312-4.108,341.375-15.891c77.992-18,161.34-13.569,236.444,14.465C582.089.167,587.092,2.9,587,7.453c-.062,3.1-2.57,5.526-4.929,7.534A254.161,254.161,0,0,1,435.378,74.56c-16.567,1.1-33.886.4-48.673-7.148s-26.33-23.462-24.317-39.943c-21.678.15-42.842,13.3-52.294,32.805s-6.554,44.458,7.365,61.079c9.8,11.706,24.218,18.986,39.186,22.005,36.55,7.375,73.236-9.1,106.889-25.158L644.955,31.647c3.753-1.791,7.713-3.762,9.884-7.308,5.646-9.219-4.3-20.07-13.544-25.673C610.924-19.741,576.33-30.106,541.508-37.08c-141.679-28.376-305.519-4.434-423.56,82.392C79.543,73.561,45.772,108.8,22.686,150.51c-13.917,25.147-22.463,59.969-1.856,80,7.847,7.629,18.548,11.435,28.935,14.884,73.788,24.5,150.921,42,228.633,39.573,63.578-1.986,127.873-18.024,182.152-51.893,41.835-26.1,73.842-66.65,110.691-98.9,57.827-50.607,129.5-76.771,205.778-58.477,77.744,18.646,144.416,69.877,205.147,119.526,43.676,35.706,89.982,70.2,143.685,87.474,82.39,26.5,177.937,7.252,243.635-49.087,31.235-26.785,55.43-60.622,81.125-92.76s53.986-63.527,90.313-82.851,82.383-24.722,118.224-4.509l102.515-80.686C1669.833-57.735,1568.382-36,1478.983,1.067Z"
          transform="translate(-244.621 0)" fill="var(--primaryColor)" />
        <path id="Path_280" data-name="Path 280"
          d="M805.254,1389.811c-111.786-28.564-223.034-74.01-338.04-64.762-77.364,6.221-159.97,36.252-228.932.642-76.15-39.322-100.669-142.914-175.966-183.847-54.782-29.78-124.4-18.035-178.62,12.764s-96.751,78.065-140.186,122.8-90.492,88.839-149.007,110.377c25.882,29.833,33.179,58.947,59.06,88.779,56.819-93.883,110.606-184.848,191.171-259.357,30.31-28.032,64.289-55.507,105.055-62.037C13.213,1145.014,73.74,1189,111.034,1241.292s59.5,114.122,96.693,166.491,97.483,96.568,160.966,86.785c72.8-11.217,118.19-86.161,185.8-115.377,61.185-26.439,133.115-11.705,192.82,17.926s111.436,72.953,168.477,107.432C1035.457,1576.88,1179.065,1608.81,1318.1,1594s272.7-76.278,374.437-172.2l13.272-165.549C1439.291,1417.7,1107.16,1466.958,805.254,1389.811Z"
          transform="translate(-50.773 -549.216)" fill="var(--primaryColor)" />
      </g>
    </g>
  </g>
</svg>