<svg id="Group_4888" data-name="Group 4888" xmlns="http://www.w3.org/2000/svg" width="26.366"
  height="29.495" viewBox="0 0 26.366 29.495">
  <path id="Path_5037" data-name="Path 5037"
    d="M2147.282-659.086l-2.706-2.564,6.747-6.841,2.343,2.588c1.474-.927,1.885-.908,2.712-.009.8.865.424,1.591-.408,2.448l3.173,2.757-6.918,7-2.892-3.2c-1.448,1.457-2.8,2.824-4.16,4.186-1.958,1.961-3.912,3.926-5.883,5.874-.841.831-1.443.815-2.249.007a1.369,1.369,0,0,1,.042-2.26q4.566-4.585,9.154-9.149C2146.51-658.516,2146.837-658.731,2147.282-659.086Z"
    transform="translate(-2136.467 671.789)" fill="#ea5a4f" />
  <path id="Path_5038" data-name="Path 5038"
    d="M2169.93-561.265c.185-1.168.4-1.358,2.038-1.359q5.947,0,11.9,0c1.486,0,1.766.261,1.939,1.8a3.134,3.134,0,0,1,1.062.217,1.461,1.461,0,0,1,.7.882c.024.237-.4.624-.7.765a2.814,2.814,0,0,1-1.136.123q-7.895.01-15.79,0c-.755,0-1.793.114-1.783-.915C2168.163-560.193,2169.139-560.623,2169.93-561.265Z"
    transform="translate(-2161.452 588.327)" fill="#ea5a4f" />
  <path id="Path_5039" data-name="Path 5039"
    d="M2222.7-628.44a7.148,7.148,0,0,1-.736,1.151c-2.39,2.419-4.8,4.817-7.206,7.223a1.28,1.28,0,0,1-1.943.2c-.607-.527-.541-1.276.185-2.006,2.4-2.413,4.785-4.834,7.233-7.194a1.937,1.937,0,0,1,1.484-.4C2222.072-629.4,2222.34-628.84,2222.7-628.44Z"
    transform="translate(-2196.334 641.039)" fill="#ea5a4f" />
  <path id="Path_5040" data-name="Path 5040"
    d="M2158.992-674.173a1.251,1.251,0,0,1-1.167-1.9,4.032,4.032,0,0,1,.621-.707q3.341-3.349,6.69-6.69c.223-.222.46-.577.708-.593.507-.032,1.207-.045,1.489.254a1.5,1.5,0,0,1,.131,1.462c-2.564,2.685-5.2,5.3-7.843,7.91A1.6,1.6,0,0,1,2158.992-674.173Z"
    transform="translate(-2153.154 684.078)" fill="#ea5a4f" />
</svg>