<svg id="Group_4889" data-name="Group 4889" xmlns="http://www.w3.org/2000/svg" width="29.5"
  height="29.352" viewBox="0 0 29.5 29.352">
  <path id="Path_5041" data-name="Path 5041"
    d="M1438.935-702.367v-.461a6.268,6.268,0,0,1,.617-.655c.6-.481,1.213-.941,1.833-1.394a.339.339,0,0,0,.153-.45c-.262-.811-.5-1.629-.748-2.447a.883.883,0,0,1,.7-1.211c.821-.193,1.64-.4,2.466-.567.251-.052.312-.166.338-.4q.14-1.287.324-2.569a.837.837,0,0,1,1.052-.749c.868.158,1.736.316,2.6.5a.3.3,0,0,0,.385-.175c.419-.711.849-1.414,1.275-2.12a.9.9,0,0,1,1.5-.322l2.248,1.563c.775-.541,1.537-1.074,2.3-1.6a.877.877,0,0,1,1.406.3c.449.737.9,1.475,1.338,2.217a.251.251,0,0,0,.318.146c.826-.171,1.656-.327,2.484-.483a.915.915,0,0,1,1.244.911c.1.828.207,1.656.3,2.485a.282.282,0,0,0,.261.278c.832.189,1.662.386,2.493.579a.891.891,0,0,1,.73,1.262c-.24.8-.476,1.6-.73,2.392a.339.339,0,0,0,.141.453c.667.485,1.319.992,1.977,1.491a.9.9,0,0,1,.146,1.512c-.6.688-1.192,1.379-1.791,2.073.456.827.906,1.64,1.353,2.455a.888.888,0,0,1-.447,1.371c-.762.362-1.523.727-2.292,1.072a.325.325,0,0,0-.23.386c.082.821.152,1.644.22,2.466.063.755-.258,1.116-1.016,1.135-.825.021-1.651.036-2.476.041a.327.327,0,0,0-.366.265c-.257.783-.534,1.559-.8,2.337a.9.9,0,0,1-1.384.624c-.778-.327-1.556-.651-2.329-.989a.273.273,0,0,0-.367.081c-.584.636-1.177,1.265-1.77,1.893a.877.877,0,0,1-1.418,0c-.592-.629-1.185-1.258-1.77-1.893a.272.272,0,0,0-.366-.082c-.8.349-1.6.685-2.409,1.02a.869.869,0,0,1-1.274-.573c-.271-.768-.548-1.535-.8-2.31a.459.459,0,0,0-.52-.384c-.834.009-1.67-.01-2.5-.041a.856.856,0,0,1-.886-.977c0-.086.01-.172.018-.259.068-.774.13-1.549.209-2.322a.361.361,0,0,0-.247-.436c-.788-.351-1.567-.722-2.345-1.095a.858.858,0,0,1-.416-1.25c.128-.247.267-.488.4-.732l.992-1.809c-.273-.316-.536-.609-.786-.912C1439.825-701.269,1439.382-701.819,1438.935-702.367Zm23.052,1.375a8.3,8.3,0,0,0-8.32-8.3,8.3,8.3,0,0,0-8.29,8.3,8.3,8.3,0,0,0,8.306,8.313A8.3,8.3,0,0,0,1461.987-700.993Z"
    transform="translate(-1438.935 715.662)" fill="#ea5a4f" />
  <path id="Path_5042" data-name="Path 5042"
    d="M1558.326-603.767a6.572,6.572,0,0,1-6.563,6.579,6.573,6.573,0,0,1-6.578-6.564,6.571,6.571,0,0,1,6.563-6.578A6.57,6.57,0,0,1,1558.326-603.767Zm-7.481.68c-.444-.451-.835-.858-1.237-1.253a.862.862,0,0,0-1.258-.027.872.872,0,0,0,.044,1.26q.88.89,1.771,1.771a.865.865,0,0,0,1.323,0q1.816-1.807,3.62-3.626a1.12,1.12,0,0,0,.271-.461.833.833,0,0,0-.41-.956.873.873,0,0,0-1.057.166q-1.309,1.3-2.606,2.605C1551.151-603.45,1551.013-603.278,1550.844-603.087Z"
    transform="translate(-1537.008 618.436)" fill="#ea5a4f" />
</svg>